/* XPM */
static char *cons[] = {
/* columns rows colors chars-per-pixel */
"64 64 206 2 ",
"   c #020002",
".  c #0D0101",
"X  c #120102",
"o  c #1B0302",
"O  c #1A0907",
"+  c #220602",
"@  c #2E0503",
"#  c #240B06",
"$  c #2D0903",
"%  c #310602",
"&  c #320A03",
"*  c #3A0D03",
"=  c #330E09",
"-  c #27120B",
";  c #351303",
":  c #3D1103",
">  c #36110A",
",  c #3C1A0E",
"<  c #251714",
"1  c #271A14",
"2  c #291C15",
"3  c #2D1E19",
"4  c #311E17",
"5  c #3B1C14",
"6  c #2E201C",
"7  c #3F2017",
"8  c #31241C",
"9  c #3C341C",
"0  c #332621",
"q  c #372A23",
"w  c #3C322A",
"e  c #3B3735",
"r  c #3E3A37",
"t  c #3E3B38",
"y  c #421203",
"u  c #4B1604",
"i  c #4C1A03",
"p  c #431408",
"a  c #521603",
"s  c #551905",
"d  c #5B1A05",
"f  c #651D04",
"g  c #6A1E03",
"h  c #4D2103",
"j  c #4A2508",
"k  c #482708",
"l  c #5B2607",
"z  c #5D2506",
"x  c #5E3509",
"c  c #573E0C",
"v  c #452615",
"b  c #4A311A",
"n  c #543C1E",
"m  c #672606",
"M  c #6C2C06",
"N  c #662B09",
"B  c #742305",
"V  c #7C2504",
"C  c #712C06",
"Z  c #7E2905",
"A  c #693709",
"S  c #763307",
"D  c #783205",
"F  c #79310B",
"G  c #6C3F16",
"H  c #47352A",
"J  c #433631",
"K  c #493D34",
"L  c #423E3A",
"P  c #523D32",
"I  c #573F38",
"U  c #6B450A",
"Y  c #714907",
"T  c #71490D",
"R  c #755511",
"E  c #5E4729",
"W  c #46423D",
"Q  c #49453F",
"!  c #564539",
"~  c #5C4B3E",
"^  c #6B4122",
"/  c #785824",
"(  c #7C6036",
")  c #7E653B",
"_  c #4A4640",
"`  c #4E4942",
"'  c #504C45",
"]  c #5C4E43",
"[  c #535047",
"{  c #5E5142",
"}  c #57544A",
"|  c #5A574B",
" . c #5D5A4E",
".. c #5F5D50",
"X. c #614F43",
"o. c #615444",
"O. c #65554A",
"+. c #615D4F",
"@. c #6A5E4E",
"#. c #615E51",
"$. c #685C53",
"%. c #646153",
"&. c #6D6656",
"*. c #6E6857",
"=. c #6F6958",
"-. c #706857",
";. c #716359",
":. c #726B59",
">. c #74695A",
",. c #7A6E60",
"<. c #797765",
"1. c #7C7966",
"2. c #7E7C68",
"3. c #822704",
"4. c #823908",
"5. c #83460A",
"6. c #9E4406",
"7. c #9C4608",
"8. c #964F0F",
"9. c #86510B",
"0. c #82590D",
"q. c #825B16",
"w. c #A34707",
"e. c #A44A06",
"r. c #AC4E07",
"t. c #AD4F0A",
"y. c #B14F07",
"u. c #AE5107",
"i. c #AB5509",
"p. c #B05006",
"a. c #B25807",
"s. c #B55D09",
"d. c #B15810",
"f. c #9B6C0B",
"g. c #916911",
"h. c #B9620A",
"j. c #B96B0D",
"k. c #A16E12",
"l. c #A17511",
"z. c #A57814",
"x. c #B47711",
"c. c #906D23",
"v. c #C4790E",
"b. c #C37D12",
"n. c #8E7A49",
"m. c #817F6A",
"M. c #B68612",
"N. c #BC8B13",
"B. c #BF9217",
"V. c #BF983E",
"C. c #C58611",
"Z. c #CC8C13",
"A. c #D08F11",
"S. c #C19012",
"D. c #D49716",
"F. c #D59D14",
"G. c #D7A215",
"H. c #DAA315",
"J. c #D9A419",
"K. c #DBA41A",
"L. c #DAA621",
"P. c #DCA923",
"I. c #DEAC2A",
"U. c #DFB02F",
"Y. c #DEAE31",
"T. c #DFB237",
"R. c #E1B034",
"E. c #E2B53A",
"W. c #E5B93F",
"Q. c #9E854E",
"!. c #9D8E52",
"~. c #A68946",
"^. c #B09C4D",
"/. c #A48E52",
"(. c #AF9854",
"). c #B6A055",
"_. c #B9A95E",
"`. c #84826C",
"'. c #89866F",
"]. c #8A8871",
"[. c #BBA965",
"{. c #D6B95A",
"}. c #E5BB43",
"|. c #E3BA49",
" X c #C6B46B",
".X c #DAB864",
"XX c #E8C24E",
"oX c #E9C354",
"OX c #EAC759",
"+X c #EECB5C",
"@X c #D7C36D",
"#X c #DECC77",
"$X c #E7C867",
"%X c #F0CE61",
"&X c #F1D266",
"*X c #F3D56B",
"=X c #F7DA6E",
"-X c #E1CC77",
";X c #ECDC7D",
":X c #F5DA72",
">X c #F6DA73",
",X c #F5DD7B",
"<X c #F9DE7B",
"1X c #FAE17C",
"2X c #FDE584",
"3X c #FDE687",
/* pixels */
"].'.'.`.'.'.'.].<.W L ..`.`.`.`.`.'.`.<.Q ..`.`.`.'.m.=.%.m.<.' 2.'.'.'.`.'.`.'.1.W L ..`.`.'.`.`.'.`.2._ ..m.'.`.`.m.=.#.2.2._ ",
"`.%.#.%.&.:.,.=.%.| |  .%.%.%.%.%.%.%.%.|  .%.%.%.%...........| ..........%.%.%.%.| | ..%.....%...%.%...| ..%.%.%.%......... .t ",
"m.....*.*.:.:.:.=.=.=.=.&... . . .+.*.:.*.=.*.&.&.&... .|  .|  ...| .. ...=.=.=.:.*.*.:.*... .......&.*.*.=.*.*.=.=.....|  .[ t ",
"`.%.*.:.:.:.:.:.=.=.:.,.:.=.=.=.*.:.:.:.:.:.=.....=.*.&...| ..| ....=.=.=.=.=.=.:.:.:.:.:.*.*.*.*.=.:.:.:.:.*.....&.*.&... .} t ",
"2.%.:.:.:.:.:.:.:.:.:.:.:.:.:.:.:.:.:.:.:.:.-. .| ..:.*... .....=.=.,.:.=.:.:.:.:.:.:.:.:.:.:.:.:.:.:.:.:.:.:.....#.:.=...| } t ",
"..*.:.:.:.:.:.:.:.:.:.:.:.:.:.:.:.:.:.:.:.:.:.*...%.=.:.*.:.*.:.:.:.=.:.:.:.:.:.:.:.:.:.:.:.:.:.:.:.:.:.:.:.:.*.....=.:.&...} t ",
"` :.:.:.:.:.:.:.:.:.:.:.:.:.:.:.:.:.:.:.:.:.:.:.*.*.:.:.:.:.:.:.:.:.:.:.:.:.:.:.:.:.:.:.:.:.:.:.:.:.:.:.:.:.:.:.*.*.=.:.=...[ t ",
"2.:.:.:.:.:.:.:.:.:.:.:.:.:.:.:.:.:.:.:.:.:.:.:.:.:.:.:.:.:.:.:.:.:.:.:.:.:.:.:.:.:.:.>.:.:.:.:.:.:.:.:.:.:.:.:.:.:.=.=.=...| t ",
"'.:.:.:.:.:.:.:.:.:.:.:.:.:.:.:.:.:.:.:.:.:.:.:.:.:.:.=.:.:.:.:.:.:.:.:.:.:.:.:.:.:.:.:.:.:.:.:.:.:.:.:.:.:.:.:.:.=.....&.&.} r ",
"`.%.:.:.:.:.:.:.:.:.:.:.:.:.:.:.:.:.:.:.:.:.>.>.:.:.:.=.:.:.:.:.:.:.:.:.:.:.:.:.:.:.:.:.:.:.:.:.:.:.:.:.:.:.:.:.:.*... . ...} r ",
"`.%.:.:.:.:.:.:.:.:.:.:.:.:.:.:.:.:.:.:.:.O.= = O O o o O O X X X o O O X o O O = > >.:.:.:.:.:.:.:.:.:.:.:.:.:.:.=.#. . . .} r ",
"`.%.:.:.:.:.:.:.:.:.:.:.:.:.:.:.:.:.:.:.:.O.% % X . X X X X X X X X X . X X . X % % ;.:.:.:.:.:.:.:.:.:.:.:.:.:.:.:.*...| ..} r ",
"m. ...:.:.:.:.:.:.:.:.:.:.:.:.:.:.:.>.-.:.o.% # X X X X X X X X . X X X X X X X $ @ &.&.>.-.-.:.:.:.:.:.:.:.:.:.:.:.:.:.*.*.} r ",
"`. . .:.:.:.:.:.<.:.:.:.:.:.:.:.>.P P J J 6 o o X . X X . X X X X X X X X X X X o o 0 r J P I >.:.:.:.:.:.:.:.:.:.:.:.:.:.:.| r ",
"`... .:.:.:.:.:.:.:.:.:.:.:.:.:.>.> $ o X . . X . . . . X X X . . X X X X X X . . . . X o & v -.:.:.:.:.:.:.:.:.:.>.#.&.&.:.| t ",
"`... .:.:.:.:.:.:.:.:.:.:.:.:.:.>.= $ o X X .                 . .                   X X o % 5 ;.:.:.:.:.:.:.:.:.:.:.*.#.` #.} t ",
"`. . .:.:.:.:.:.:.:.:.:.:.:.$.w w o o X . j 4.5.l.l.l.l.l.l.g.$ ; D 4.~._.^.l.M.z.z.c X o o O w w ;.:.:.:.:.:.:.:.:.:.*.%.Q L r ",
"`.....:.:.:.:.:.&.&.*.*.-.-.]   . . X X X A t.h.H.H.H.H.J.H.N.* y 6.u..X3X*XJ.J.J.J.R X X X X   . %.:.:.:.:.:.:.:.:.:.:.%.%.[ L ",
"<.| | &.:.:.&...W Q  .#.#.$.] . X X X X O N t.h.F.H.G.H.K.H.M.: : 6.i.{.3X&XJ.H.G.G.R X X X . . . $.:.:.:.:.:.:.:.:.:.:.&.:.| r ",
"` L L Q %.+.Q Q [  .*.-.$.| w . # N S 0.q.k.b.b.F.H.C.v.x.f.0.= : M S V.OX}.J.J.XXOX).!.!.!.Q.2 . K | ;.:.:.:.*.+.#.*.:.:.&.| L ",
"1.| | | Q Q | [ Q &.:.:.8 . . . ; e.u.A.H.H.H.H.H.J.h.t.F @ % = & & & l.H.H.H.P.1X2X2X2X2X2X#X9 . . . J :.:.-.+.| ..:.:.:.*. .r ",
"`.+.&.&.|  .*.%.Q &.:.:.q . X . ; e.t.A.H.H.H.H.H.F.h.p.F @ % % @ % & l.G.H.H.J.:X3X2X2X2X2X-X9 . . . J :.:.-.+.#.*.:.:.:.:.| r ",
"1.+.:.:.*.*.:.*. .*.{ ] 6   ; z A j.v.D.H.H.H.H.H.F.8.4.T 0.q.n.n.q.0.M.H.I.XXXX1X2X2X2X=X+X{.G z = . 0 ] ~ :.:.*.:.:.:.*.*.| r ",
"[ *.:.:.:.:.:.*.%.*.& & o   z p.s.H.H.H.H.H.H.H.H.F.x * f.H.W.2X2XU.H.H.H.W.1X2X2X2X2X2X+XH.D.a.p.h . o = = :.:.:.:.:.:.*.*. .r ",
"2.:.:.:.:.:.:.:.*.+.; & o   z p.s.F.H.H.H.H.H.H.H.F.A & f.H.W.1X<XR.H.H.H.W.3X2X3X3X3X2X%XK.F.a.t.h . o & = :.:.:.:.*.#.#.&.} t ",
"'.:.:.:.:.:.:.:.*.+.$ # o . z p.s.H.H.H.H.H.H.H.H.F.x & c.T.}.*X&XI.K.I.R.XX1X2X2X2X:X=XXXH.F.i.t.h . o $ - :.:.:.:.*. .| ..| t ",
"`.%.:.:.:.:.:.:.:.:.. X X   m r.s.H.H.H.H.H.H.H.H.F.x = (.,X*XJ.H.J.K.+X1X2X2X2X2X2X|.G.J.H.F.a.r.h . X . X :.:.:.:.:.....| | r ",
"`.%.*.:.:.:.:.:.:.:.. . X   z u.s.F.H.H.H.H.H.H.H.F.x = (.3X:XL.H.H.K.+X2X2X2X2X2X3X}.G.H.H.D.a.r.h . . . X :.:.:.:.:.*.| | | r ",
"m.....*.:.:.:.:.:.:.. X X   m u.h.F.H.H.H.H.H.H.H.G./ E /.@X{.B.N.S.S.$X2X2X2X2X,X:XE.H.H.G.D.a.t.h . . . X ,.:.:.:.:.*...| } t ",
"`... ...:.:.:.:.:.:.X X X . z u.s.H.H.H.H.H.H.H.G.J.$X;X!.n b j k k k [.2X2X2X1XT.P.H.H.H.H.D.a.r.s . X X X :.:.:.:.:.*...| } t ",
"<. . ...:.:.:.:.:.:.X . X   N u.s.F.H.H.H.H.H.H.G.P.:X3X/.% & % % & & _.2X2X3X<XI.H.H.H.H.H.D.i.u.h . X X X :.:.:.:.:.=...| } t ",
"' |  ...*.:.:.:.:.:.X X X . l e.a.F.H.H.H.H.H.H.J.P.&X1X/.* * & & , v _.3X1X1X=XP.H.H.H.F.F.D.i.e.i . . X X :.:.:.:.*...| ..} t ",
"1. . .*.:.:.:.:.:.:.. X X X # u l i.a.D.H.H.F.Y.:X=XE.P.C.7.4.& v  X-X,X3X*XI.P.J.H.H.H.Z.s.e.s p + . . X X :.:.,.=.*...|  .| t ",
"`.%. .*.:.:.:.:.:.:.X X X . + & i e.u.Z.H.J.H.R.<X3XR.H.b.p.6.* b -X2X2X2X&XK.H.H.K.H.H.C.r.w.p $ o . X X . :.:.:.=.*. .|  .| t ",
"`. .%.:.:.:.:.:.:.:.. X . . + & i e.t.Z.F.J.J.E.<X<XR.H.b.d.8.v n -X2X1X3X%XK.H.K.F.F.F.C.e.7.y * o . . X o :.:.=.:.:...|  .| r ",
"`.%.:.:.:.:.:.:.:.:.$ + o . * B g l z A U ~.:X&XE.E.J.F.|.-X$X X@X,X2XOXE.I.H.D.j.j.9.U A l d m B & . o $ $ *.+...*.:.*. .| } r ",
"1.%.:.:.:.:.:.:.:.:.& & o . y V B & = % & Q.2X:XH.H.H.H.OX2X2X2X1X2X3XoXH.H.H.F.s.t.N & & % * V V & . o & & -. . ...=.=... .} r ",
" .*.:.:.:.:.:.:.:.:.@ & o . p Z B & & % @ Q.2X:XK.H.H.H.OX3X2X2X2X2X2X|.H.H.H.D.s.t.N @ % % * V V : . o % & :.*.....:.:.*. .| t ",
"` :.:.:.:.:.:.:.:.:.P P - . + * y g f f f ^ ) ( T T T Y / ) ) ) c.@.) / Y T T U N z f f f f d * * o . 1 P ! :.:.*.:.:.:.=. .} r ",
"2.:.:.:.:.:.:.:.:.:.o.o.< X . . @ B V V V d @ @ $ @ & % @ % @ @ % % @ % @ @ @ % & $ g V V V B o . . . 8 O.o.:.:.:.:.=.=.=...} t ",
"'.:.:.:.:.:.:.:.:.:.o.o.< X . X # B V V V d % % & & & & % & % & & % & % & & % % % $ g V V V B + . . . 8 o.o.:.:.:.*. .%.&.&.| t ",
"`.%.*.:.:.:.:.:.:.:.:.&.K H 3 . o u a a a u d s s d C F F F F F F F F F F B d s s d u u a a y o . 8 H ! -.-.:.:.:.*. . . . .| t ",
"`.%.*.:.:.:.:.:.:.:.:.:.@.o.H . X X . .   u V V V 3.w.t.t.t.t.t.t.t.t.t.t.7.V V V B y . . . . X . K ~ -.:.:.:.:.:.=.+. . .| | r ",
"`.%.*.*.:.:.:.:.:.:.:.:.@.o.w . . X X X X u V V V 3.w.y.y.y.y.y.y.y.y.y.y.7.V V V V p X . X X X . K o.&.:.:.:.:.:.:.*... . .} r ",
"`...+.:.:.:.:.:.:.:.:.:.,.>.] q 8 + o X X = a s s s C D D C D F D D D D D M s s s s $ X o o # q q O.:.:.:.:.:.:.:.:.:.*.=.*.| t ",
"`.....*.:.:.:.:.:.:.:.:.:.:.,.{ ~ & & o X X X X X . X X o o o X X o X X X o X . X X X X o & > X.o.-.:.:.:.:.:.:.:.:.:.:.:.=.| t ",
"`. ...:.:.:.:.:.:.:.:.:.:.:.,.{ ! & & o . . X X X X X X . X X X X X X X X X X X . . X . + & > { o.-.:.:.:.:.:.:.:.*.%.*.&.*.| t ",
"`. .%.:.:.:.:.:.:.:.:.:.:.:.,.@.o.v 5 3 1 # o o X X . o X X X X X X o X X X X X o o < 1 4 5 v O.@.:.:.:.:.:.:.:.:.:.*. .` +.| t ",
"`... .*.:.:.:.:.:.:.:.:.:.:.:.:.:.~ ~ ~ @.n & $ X X X X X X X X X X X X X . . o $ @ ! ~ ~ ~ o.>.:.:.:.:.:.:.:.:.:.:.:.*.%.Q L t ",
"m.....:.:.:.:.:.:.:.:.:.:.:.:.:.:.O.@.~ o.H & $ X . X X X . X . . X X . X X X X & & ! o.o.o.@.:.:.:.:.:.:.:.:.:.:.:.:.:.%.%.} r ",
"`...+.:.:.:.:.:.:.:.:.:.:.:.:.:.:.&.@.@.@.! , 7 < < < < < < 1 1 < < < < 1 < 1 1 5 5 ~ @.&.@.&.:.:.:.:.:.:.:.:.:.:.*.:.:.&.:.| r ",
"m.%.*.:.:.:.:.:.:.:.:.:.:.:.:.:.:.:.:.:.:.,.~ ~ { { { { { ] { { ] { ] { { { { { ~ ~ -.:.:.:.:.:.:.:.:.:.:.:.:.*.+.%.*.:.:.&.| L ",
"m.%.=.:.:.:.:.:.:.:.:.:.:.<.:.:.:.:.:.:.:.,.o.| { { o.o.o.{ o.{ o.o.o.{ o.o.~ o.O.o.-.:.:.:.:.:.:.:.:.:.:.:.=...| #.:.:.:.&.| t ",
"`.+.*.:.:.:.:.:.:.:.:.:.:.:.:.:.:.:.:.:.:.,.o.o.o.o.o.o.o.o.o.o.o.o.o.o.o.o.o.o.o.o.-.:.:.:.:.:.:.:.:.:.:.:.*.+.%.*.:.:.:.:.| r ",
"1.%.*.:.:.:.:.:.:.:.:.:.:.:.:.:.:.:.:.:.:.:.:.:.:.:.:.:.:.:.*...#.:.:.:.:.:.:.&.+.:.:.:.:.:.:.:.:.:.:.:.:.:.&.&.&.:.:.:.:.*.| t ",
"[ &.:.:.:.:.:.:.:.:.:.:.*.*.:.:.:.:.:.:.:.:.:.:.:.:.:.:.:.:...| #.:.:.:.:.:.:.:.%.&.:.:.:.:.:.:.:.:.:.:.+. .#.:.:.:.:.*.:.*.| t ",
"2.:.:.:.:.:.:.:.:.:.:.*... . .+.=.:.:.:.:.:.:.:.:.:.:.:.:.*.....*.:.:.:.:.:.:.:.&.$.&.*.%.*.:.:.:.:.:.*...| | ..:.:.*.#...&. .r ",
"'.:.:.:.:.:.:.:.:.:.*. .|  . .+.=.:.:.:.:.:.:.:.:.:.:.:.:.*.&.&.>.:.:.:.:.:.:.:.&. . .%.*.:.:.:.:.:.:.*.....| ..=.:.*. .| ..| r ",
"`.%.:.:.:.:.:.:.:.:.*... . .+.*.:.:.=.=.=.:.:.:.:.:.:.:.:.*.......:.:.:.:.:.:.:.%.Q &.:.:.:.:.:.:.:.:.*.*.*.#.#.*.:.:...| ..} r ",
"`.%.*.:.:.:.:.:.:.:.*.+.+.*.:.:.=.=.&.......=.:.:.:.:.:.*...| .. .&.:.:.:.:.:.:.&.W &.:.:.:.:.:.:.:.&.....=.*.*.:.:.:.*...| } r ",
"`.....*.-.:.:.:.*. .*.*.*.:.:.:.=... .....| %.=.:.*.*.*...| ..} | #.*.*.:.:.:.:.#._ &.:.:.:.:.*.*.#. .| ....*.:.*.=.=.=.| | } t ",
"`. .|  .+.*.:.*.%.Q &.*.:.*.*.....| | | | | ..*.*. ... .| ..| ....|  ...#.*.:.%.W | &.*.=.*.*... .| | ..| ..*.*.=.........| | t ",
"<.| | | } | | [ L L | | | | | | } } } | } } } | } } | | } } } } | } } } | | } L t } | | | | } } } | | | } } } | } } } } } } [ t ",
"W t t r t t t r e e t t t r r r t t t t t t t t t r r r t t r r r r r r r r r e r t t t t t t r r t t t t t t t t t t t t t t e "
};
