/* XPM */
static char *Down[] = {
/* columns rows colors chars-per-pixel */
"64 64 78 1 ",
"  c #080000",
". c #3B3735",
"X c #3B3736",
"o c #3D3A37",
"O c #3E3B38",
"+ c #3F3B38",
"@ c #3F3C39",
"# c #403C38",
"$ c #423F3B",
"% c #433F3B",
"& c #44403D",
"* c #46423D",
"= c #47423D",
"- c #4A463F",
"; c #494640",
": c #4B4640",
"> c #4B4842",
", c #4F4A42",
"< c #504C44",
"1 c #504D45",
"2 c #535147",
"3 c #545047",
"4 c #57544A",
"5 c #57554A",
"6 c #5A574B",
"7 c #59574C",
"8 c #5A584C",
"9 c #5B584C",
"0 c #5D5B4E",
"q c #5E5C4F",
"w c #5F5C50",
"e c #5F5D50",
"r c #605C4F",
"t c #605D4F",
"y c #635D4F",
"u c #615D50",
"i c #615F52",
"p c #645E50",
"a c #626052",
"s c #636053",
"d c #646153",
"f c #656354",
"g c #696253",
"h c #6A6354",
"j c #6B6454",
"k c #6B6655",
"l c #6C6756",
"z c #6E6756",
"x c #6E6757",
"c c #6E6857",
"v c #6F6857",
"b c #6D6858",
"n c #6F6958",
"m c #706A58",
"M c #726B59",
"N c #736B59",
"B c #736C59",
"V c #746E5C",
"C c #766F5C",
"Z c #797764",
"A c #7A7866",
"S c #7F7B67",
"D c #7E7C68",
"F c #817F6A",
"G c #B97371",
"H c #82806B",
"J c #83806B",
"K c #83816C",
"L c #85836E",
"P c #86846E",
"I c #89866F",
"U c #898670",
"Y c #8B8972",
"T c #67979C",
"R c #CF9C9B",
"E c #9CC8CD",
"W c #E3C6C5",
"Q c white",
/* pixels */
"YPLLPUIUA&$iFPLLLLPZ-eLLLPHcpLZ,SLLLLLLLA&&qHPLLLLLS-0FLLLJMiFA&",
"KfidfVVBa870aaiiiida00aaidiq0ii6eaiiiifia89qaiiiiidi00idddi09a6%",
"HetxcMMMMcMcxe000qccxnxcxx000760e77wexvxcnnnxq0q0txccmxxxxq0995@",
"HacMMMMMMMMMMnnnMcMMMMxqqxmx0706wwMnnBBNMMMMmmmccmBmMBciqcccq66o",
"DdMMMMMMMMMMMMMMMMMMMMcq9tmxi0qtcnMMMMMMMMMMMMMMMMMMMMm07wxMe86o",
"icMMMMMMMMMMMMMMMMMMMMBx0imMmxmxMMMMBBMMMMMMMMMMMMMMMMMxiwMMke5O",
"<xMMMMMMMMMMMMMMMMMMMMMMmmMMBMMMMMMMMMMMMMMMMMMMMMMMMMMMxMMMnw4O",
"SBMMMMMMMMMMMMMMMMMMMMMMMMMMmBMMMMMMMMMMMMMMMMMMMMMMMMMMMMnnne5O",
"PBMMMMMMMMMMMMMMMMMMMMMMMMMMMMMMMMMMMMMMMMMMMMMMMMMMMMMMMctixk6o",
"KdnMMMMMMMMMMMMMMMMMMMMMMMMMMMMMMMMMMMMMMMMMMMMMMMMMMMMMMc06006o",
"HanMMMMMMMMMMMMMMMMMMMMMMMMMMMMMMMMMMMMMMMMMMMMMMMMMMMMMMMq0075o",
"HaxMMMMMMMMMMMMMMMMMMMMMMMMMMMMMMMMMMMMMMMMMMMMMMMMMMMMMMMxq004O",
"HqtMMMMMMMMMMMMMMMMMMMMMMMMMMMMMMMMMMMMMMMMMMMMMMMMMMMMMNmNmMx6o",
"Hi0MMMMMMMMMMMMMMMMMMMMMMMMMMMMMMMMMMMMMMMMMMMMMMMMMMMMMNNmmMx6O",
"FqqMMMMMMMMMMMMMMMMMMMMMMMMMMMMMMMMMMMMMMMMMMMMMMMMMMMMMMmdxxx6O",
"HaqcMMMMMMMMMMMMMMMMMMMMMMMM        MMMMMMMMMMMMMMMMMMMMMMxr>06O",
"HitmMMMMmMMmMMMMMMMMMMMMMM            MMMMMMMMMMMMMMMMMMMMBmy-%.",
"HqqcMMMmxcxmxmMMMMMMMMMM    RRRRRRRR    MMMMMMMMMMMMMMMMMMmxdg4#",
"Z96xBmxt=-0ityNMMMMMMMM   RWWWWWWWWWWR   MMMMMMMMMMMMMMMMxmMMx6o",
">%%-jy=&<0xcmmMMMMMMMM  RWWWWWWWWWWWWWWR  MMMMMMMMMMMMMx0iNNMM6o",
"Z663==63&cMMMMMMMMMMM  RWWWWWWWWWWWWWWWWR  MMMMMMMMMMMxt0qxMMn6O",
"Jdcx90xd-xMMMMMMMMMM  RWWWWWWWWWWWWWWWWWWR  MMMMMMMMMMmrixMMMx6O",
"AdmNmmNx0MMMMMMMMMMM  WWWWWWWWWWWWWWWWWWWW  MMMMMMMMMMMmxMMMMn5O",
"3cMMMBmcicMMMMMMMMM  RWWWWWWWWWWWWWWWWWWWWR  MMMMMMMMMMMMMMMnn7O",
"FNBNMMMMkicBMMMMMMM  WWWWWWWWWWWWWWWWWWWWWW  MMMMMMMMMMMMMmttx6o",
"LmBmMMMMniMMMMMMMM  RWWWWWWWWWWWWWWWWWWWWWWR  MMMMMMMMMMMMc0905o",
"HdNMMMMMMcMMMMMMMM  RWR    RWWWWWWWWR    RWR  MMMMMMMMMMMMct605O",
"HaxMMMMMMMMMMMMMMM  RW QQ   WWWWWWWW QQ   WR  MMMMMMMMMMMMMxq75O",
"Ht0cBBMMMMMMMMMMMM  RR QQ   WWWWWWWW QQ   RR  MMMMMMMMMMMMMn096O",
"Kt6iMBMBMMMMMMMMMM  GR      WW    WW      RG  MMMMMMMMMMMMMx095O",
"Ai6icBBBMMMMMMMMMMM  R      W      W      R  MMMMMMMMMMMMMMxi94O",
",86inMBnMMMMMMMMMMM  GR    RW QQQQ WR    RG  MMMMMMMMMMMMMMq674O",
"ZqqcMMMMMMMMMMMMMMMM  REEERWW      WWREEER  MMMMMMMMMMMMMMnq995o",
"LtqcMMMMMMMMMMMMMMMM  GEEEWWWWWWWWWWWWEEEG  MMMMMMMMMMMMMMc0099o",
"FqiMMMMMMMMMMMMMMMMMM  TEEWWWWWWWWWWWWEET  MMMMMMMMMMMMMnBMq605o",
"HacMMMMMMMMMMMMMMMMMMM  TERWWWWWWWWWWRET  MMMMMMMMMMMBcqqcMxq75o",
"DdMMMMMMMMMMMMMMMMMMMMM   TRWWWWWWWWRT   MMMMMMMMMMMMMnq7ixMi65o",
"ixMMMMMMMMMMMMMMMMMMMMMM    GRRRRRRG    MMMMMMMMMMMMMMMxi0MMx04O",
"<cMMMMMMMMMMMMMMMMMMMMMMM              MMMMMMMMMMMMMMMMMcxMMnw4O",
"FMMMMMMMMMMMMMMMMMMMMMMM  RW        WR  MMMMMMMMMMMMMMMMNNnnn06O",
"LmMMMMMMMMMMMMMMMMMMMMM  RWWRRRRRRRRWWR  MMMMMMMMMMMMMMMMMtixk6o",
"FdmMMMMMMMMMMMMMMMMMMMM  RW RWWWWWWR WR  MMMMMMMMMMMMMMMMx09005o",
"JdmMMMMMMMMMMMMMMMMMMMM  RW WWWWWWWW WR  MMMMMMMMMMMMMMMMmt0704O",
"JacMMMMMMMMMMMMMMMMMMMMM    WWR  RWW    MMMMMMMMMMMMMMMMMMx0005O",
"F0tmMMMMMMMMMMMMMMMMMMMMM   WWW  RWW   MMMMMMMMMMMMMMMMMMMMmMx6o",
"LitmMMMMMMMMMMMMMMMMMMMMMM   WW  RW   MMMMMMMMMMMMMMMMMMMMmMMx6O",
"FqtmMMMMMMMMMMMMMMMMMMMMMMM          MMMMMMMMMMMMMMMMMMMMxyxxx6O",
"FiqmMMMMMMMMMMMMMMMMMMMMMMMM   MM   MMMMMMMMMMMMMMMMMMMMMMxr<06O",
"FqtMMMMMMMMMMMMMMMMMMMMMMMMMMMMMMMMMMMMMMMMMMMMMMMMMMMMMMMMxy>%.",
"FiqxMMMMMMMMMMMMMMMMMMMMMMMMMMMMMMMMMMMMMMMMMMMMMMMMMMMMMMMmyg6o",
"HtimMMMMMMMMMMMMMMMMMMMMMMMMMMMMMMMMMMMMMMMMMMMMMMMMMMMMmxMMnn6o",
"HaxNMMMMMMMMMMMMMMMMMMMMMMMMMMMMMMMMMMMMMMMMMMMMMMMMMMMxtimMMn6O",
"HamMMMMMMMMMMMMMMMMMMMMMMMMMMMMMMMMMMMMMMMMMMMMMMMMMMMx07txMMn6O",
"FdmMMMMMMMMMMMMMMMMMMMMMMMMMMMMnmMMMMMMMmMMMMMMMMMMMMMMtixMMMn6O",
"AdmMMMMMMMMMMMMMMMMMMMMMMMMMMMxeixMMMMmmimMMMMMMMMMMxxmmcMMMMn5O",
"3xMMMMMMMMMMcmcmMMMMMMMMMMMMMn08rmMMMNNmtxMMmMMMMMMMi0txMMMMnn7O",
"FBMMMMMMMMMx0t0tnMBMMMMMMMMMMxeexNMMMMMMxtxxtmMMMMMx077tMMmttx6o",
"LMMMMMMMMMm0060tnMMMMMMMMMMMMMnxmNMMMMMMx6qdmBMMMMMMi000mMx0605o",
"FdMMMMMMMMx090rxMMMMnnMMMMMMMxe7tNNMMMMMg-gMmMMMMMMxxxqimMxi605O",
"JixMMMMMMMxqixMNMnx00enMMMBnxqu90zMMMMMMx&xNNMMMBcxt0xxMMMMxq75O",
"HqixxmBMx0xMxMMMke0099qMMccc09996ixcmMMMp-cNMMMnc0009iMMMMnx096O",
"Ji90txNxt-xxMzx0068899qcxqqq07u76000txBy&4xxnnxe000690xxxe00995O",
"Z8659991%#46666664555557665545556444666%o4666664465544775544452O",
"&oooo#ooXXOOOOooOOo@@@oOoOooOOOOOoooooXXXOOOOOOOoOooOOOOOOOOOOOX"
};
