/* XPM */
static char *exit[] = {
/* columns rows colors chars-per-pixel */
"64 64 181 2 ",
"   c #0B0B0B",
".  c #110E0F",
"X  c #17110F",
"o  c #120F10",
"O  c #131313",
"+  c #1B1411",
"@  c #1F1816",
"#  c #1C1818",
"$  c #201612",
"%  c #261A15",
"&  c #281C17",
"*  c #231C1A",
"=  c #2A1E1A",
"-  c #2D211C",
";  c #31251E",
":  c #3C2B1E",
">  c #232323",
",  c #2E2320",
"<  c #312521",
"1  c #362A26",
"2  c #3B2C22",
"3  c #332E2C",
"4  c #392D29",
"5  c #35302E",
"6  c #3D312E",
"7  c #343435",
"8  c #3E3331",
"9  c #3C3937",
"0  c #3E3B38",
"q  c #412E1D",
"w  c #45331E",
"e  c #4C341B",
"r  c #4D3A1F",
"t  c #543712",
"y  c #563812",
"u  c #443222",
"i  c #493622",
"p  c #4E3B25",
"a  c #42352C",
"s  c #46392B",
"d  c #513D24",
"f  c #413532",
"g  c #463936",
"h  c #493A37",
"j  c #423E3B",
"k  c #4C3E3C",
"l  c #65451E",
"z  c #744E1D",
"x  c #574121",
"c  c #45413D",
"v  c #4A443F",
"b  c #584837",
"n  c #51433C",
"m  c #624625",
"M  c #664B27",
"N  c #6C4A21",
"B  c #61472A",
"V  c #745228",
"C  c #67563F",
"Z  c #6A563B",
"A  c #7C5D35",
"S  c #765D3C",
"D  c #7E6038",
"F  c #424242",
"G  c #4B4541",
"H  c #4E4942",
"J  c #4E4E4E",
"K  c #534543",
"L  c #524C44",
"P  c #594947",
"I  c #504F4F",
"U  c #5C4D4B",
"Y  c #535047",
"T  c #5E5247",
"R  c #56544A",
"E  c #5A554C",
"W  c #5D5A4E",
"Q  c #4F4F50",
"!  c #565555",
"~  c #5F5151",
"^  c #5F5D50",
"/  c #5F5F5F",
"(  c #6B5A41",
")  c #64554B",
"_  c #605D4F",
"`  c #725F43",
"'  c #635352",
"]  c #615E51",
"[  c #695857",
"{  c #685858",
"}  c #6C5C5C",
"|  c #705E5D",
" . c #756143",
".. c #7D6741",
"X. c #646153",
"o. c #6D6656",
"O. c #6E6857",
"+. c #68605F",
"@. c #6F6958",
"#. c #72605F",
"$. c #726B59",
"%. c #636363",
"&. c #686767",
"*. c #6C6C6C",
"=. c #756363",
"-. c #796666",
";. c #776868",
":. c #7D6B6B",
">. c #797765",
",. c #7E7C68",
"<. c #8A5C1E",
"1. c #835A26",
"2. c #895D26",
"3. c #8F692D",
"4. c #916B2E",
"5. c #9C6B29",
"6. c #9A712D",
"7. c #80643A",
"8. c #A26E28",
"9. c #AD7527",
"0. c #A4752D",
"q. c #A5792F",
"w. c #AB7C2E",
"e. c #A57634",
"r. c #AB7D35",
"t. c #86714F",
"y. c #92794B",
"u. c #927B55",
"i. c #806E6E",
"p. c #817F6A",
"a. c #826F70",
"s. c #857373",
"d. c #897776",
"f. c #8C7B7A",
"g. c #917E7E",
"h. c #BE862D",
"j. c #AC843E",
"k. c #B38232",
"l. c #B78838",
"z. c #C48F34",
"x. c #C69136",
"c. c #CE9232",
"v. c #D19532",
"b. c #DC9D33",
"n. c #E7A93A",
"m. c #B78E51",
"M. c #BE9556",
"N. c #84826C",
"B. c #89866F",
"V. c #9F8B64",
"C. c #8A8871",
"Z. c #958E7E",
"A. c #BFA066",
"S. c #D5A95D",
"D. c #F3B545",
"F. c #F3B74A",
"G. c #F6B94A",
"H. c #E6B458",
"J. c #F1BE5F",
"K. c #C6A568",
"L. c #D8AE67",
"P. c #DCB672",
"I. c #DBB976",
"U. c #E2C07A",
"Y. c #F2CC7D",
"T. c #F8D07F",
"R. c #927F80",
"E. c gray52",
"W. c gray55",
"Q. c #978585",
"!. c #9B8989",
"~. c #9D9485",
"^. c #9D9D9D",
"/. c #A19987",
"(. c #A89F90",
"). c gray65",
"_. c #FAD381",
"`. c #D7C9AC",
"'. c #D9CEBD",
"]. c #E3D4B5",
"[. c #E4D9C7",
/* pixels */
"C.B.B.N.N.C.N.B.>.c j ^ N.N.N.N.N.B.N.>.G ^ N.N.N.N.N.@.X.p.>.J ,.B.B.B.N.N.N.B.,.c j ^ ,.B.B.N.N.B.N.,.G ^ ,.N.N.N.,.@.X.,.,.F ",
"N.X.] X.o.$.>.$.X.E W ^ X.^ X.X.] ] X.X.W W X.X.X.X.^ ^ W ^ ^ E ^ ^ X.^ ^ X.X.X.] E E ^ ] ^ ^ ^ ] ] X.] E ^ X.X.X.o.^ ^ ^ ^ W 0 ",
"p.^ ^ O.$.$.$.$.O.O.O.O.o.^ ^ ^ W _ o.$.O.O.O.o.o.o.^ W E W E W W W W W ^ @.@.@.$.$.$.$.O.^ ^ ^ ^ ] @.@.@.@.O.o.@.o.^ ^ W W R 0 ",
"N.X.O.$.$.$.$.$.$.$.$.$.O.@.@.@.$.$.$.$.$.$.O.^ ^ O.O.o.W W W W W ^ o.O.@.$.$.@.$.$.$.$.$.$.O.O.@.@.$.@.$.$.@.] ^ @.@.o.W W R 0 ",
",.X.$.$.$.$.$.$.$.$.$.$.$.$.$.$.$.$.$.$.$.$.$.' W ^ $.O.] W W ] @.$.$.$.$.$.$.$.$.$.$.$.$.$.$.$.$.$.$.$.$.$.@.^ W ^ $.O.^ W R 9 ",
"^ O.$.$.$.$.$.$.$.$.$.$.$.$.$.$.$.$.$.$.$.$.$.$.^ ] O.$.O.O.$.$.$.$.$.$.$.$.$.$.$.$.$.$.$.$.$.$.$.$.$.$.$.$.$.@.W ] O.$.o.W R 0 ",
"H $.$.$.$.$.$.$.$.$.$.$.$.$.$.$.$.$.$.$.$.$.$.$.O.$.$.$.$.$.$.$.$.$.$.$.$.$.$.$.$.$.$.$.$.$.$.$.$.$.$.$.$.$.$.$.$.$.$.$.O.W R 0 ",
",.$.$.$.$.$.$.$.$.$.$.$.$.$.$.$.$.$.$.$.$.$.$.$.$.$.$.$.$.$.$.$.$.$.$.$.$.$.$.$.$.$.$.$.$.$.$.$.$.$.$.$.$.$.$.$.$.$.$.$.O.] R 9 ",
"B.$.$.$.$.$.$.$.$.$.$.$.$.$.$.$.$.$.$.$.$.$.$.$.$.$.$.$.$.$.$.$.$.$.$.$.$.$.$.$.$.$.$.$.$.$.$.$.$.$.$.$.$.$.$.$.$.O.] ^ o.@.E 9 ",
"p.] $.$.$.$.$.$.$.$.$.$.$.$.$.$.$.$.$.$.$.$.$.$.$.$.$.$.$.$.$.$.$.$.$.$.$.$.$.$.$.$.$.$.$.$.$.$.$.$.$.$.$.$.$.$.$.O.W E W W R 0 ",
"N.] $.$.$.$.$.$.$.$.$.$.$.$.$.$.$.$.$.$.$.$.$.$.$.$.$.$.$.$.$.$.$.$.$.$.$.$.$.$.$.$.$.$.$.$.$.$.$.$.$.$.$.$.$.$.$.O.] W W W R 0 ",
"N.X.$.$.$.$.$.$.$.$.$.s.i.[ < { f.R.s.f.i.4 ' d.Q.s.g.!.!.s.i.:.i.i.:.i.i.:.i.:.K f #.[ -.!.!.U & ; ' i.:.$.$.$.$.$.O.^ W W R 0 ",
"p.] ] $.$.$.$.$.$.$.$.=.=.~ < U ;.s.-.:.| 1 U :.s.=.i.s.s.;.=.=.=.=.#.=.#.=.=.#.h 4 [ { =.R.R.P & - U #.=.$.$.$.$.$.$.O.@.@.R 0 ",
"p.] ^ O.$.$.$.$.$.$.$.U E K = K ' ' ~ ' K , k ~ ' ~ ' ' ' ~ ~ U U E ~ ~ ~ ~ ~ U f 1 P ~ { -.i.k - & k E ) $.$.$.$.$.O.$.$.$.E 0 ",
"p.^ ^ $.$.$.$.$.$.$.$.f f 4 = K K f f f 1 = 1 f 4 f f 6 f f f 8 f 8 a f 6 f 6 f < - f K P k K h a = 4 f 6 $.$.$.$.$.X.o.o.$.E 0 ",
"p.^ ^ O.$.$.$.$.$.$.$.% & = ; k f % % & & & = , , , , - = < = , - < - - - - - , , = = h g = % f k < < = % $.$.$.$.$.O._ n _ R 0 ",
"N.^ W $.$.$.$.$.$.$.$.& 6 G k 8 < < < < = & f K v K k K K K K k K n K K k K K v K g = 4 4 < ; < 4 k ' K = $.$.$.$.$.$.o.[ v j 8 ",
"N.^ W @.$.$.$.$.o.o.@.& h ' k 1 : B ` S M : f k k v k k k h k k k k k k k k k k k g ; m A  .B q 1 k | P - $.$.$.$.$.$.$._ o.R 0 ",
">.W E o.$.$.o.X.v v W = K [ 1 , m e.P.H.l.u = = - - - > = = = = = = = = = - - - = - 2 r.H.I.k.m ; 1 ' U - $.$.$.$.$.$.$.@.@.E 0 ",
"G j j G o._ v c L W o.= P [ ; = S S.J.F.z.p = $ X X O O X X + + X X X + . + + O + = u h.G.J.L.7.; - ' U = $.$.@._ _ @.$.$.@.E 0 ",
">.W R R c c R Y G o.$.= P } < = t.Y.G.n.k.s < * # O O O O O O O O O O O O O O O * - a r.n.D.T.u.< - ' U - $.@._ W _ $.$.$.O.E 0 ",
"N.X.O.o.E W $.X.G o.$.= ' :.< = t._.G.l.( c 9 9 7 7 7 9 7 7 7 7 7 7 9 7 9 7 7 7 9 9 j C j.D.T.u.< - ' U - $.$.) _ O.$.$.$.O.E 0 ",
">.X.$.$.O.$.$.o.W $.$.= { s.f < C A.H.y.I &.*.*.*.*.*.*.*.*.*.*.*.*.*.*.*.*.*.*.*.*.&.! t.H.K.` < a { P - $.$.O.O.$.$.$.$.$.W 9 ",
"Y o.$.$.$.$.$.O.] $.$.= { d.U 1 2 C I.V.%.^.).).).).).).).).).).).).).).).).).).).).^.&.V.U.` 2 1 P #.U - $.$.$.$.$.$.O.O.O.R 0 ",
"p.$.$.$.$.$.$.$.O._ $.- ~ a.~ 4 = K `././ E.W.W.W.W.W.W.W.W.W.W.W.W.W.W.W.W.W.W.W.W.E./ Z.].) = 2 U =.U - $.$.$.$.$.O.^ ^ o.R 0 ",
"N.$.$.$.$.$.$.$.O.X.O.- P :.U 4 = L '.(.E +./ %.%.%.%.%.%.%.%.%.%.%.%.%.%.%.%.%.%.%.%.E ~.[.E - 1 U =.P - $.$.$.$.$.O._ W W R 0 ",
"N.X.$.$.$.$.$.$.$.o.$.- ~ s.~ 4 % b L.M.D R ! Y Q Q J Q Q Q Q Q Q Q Q Q Q Q Q Q Y Q U S m.P.b = 1 U =.U - $.$.$.$.$.$._ W W R 0 ",
"N.X.O.$.$.$.$.$.$.$.O.- ' s.~ 4 % u q.h.0.Z n j 0 7 7 7 7 7 7 7 7 7 7 7 7 7 7 0 j n C e.h.w.e = 1 U $.T - $.$.$.$.$.$.O.W W R 0 ",
"N.W _ O.$.$.$.$.$.$.$.- b ;.~ 4 + + p q.v.5.z u 1 # O O O O O O O O O O O O # 3 i N 5.v.k.d $ + 1 U =.U - $.$.$.$.$.$.O._ R R 0 ",
"N._ W _ $.$.$.$.$.$.o.- P -.U 4 + o ; q.b.9.<.l , .                           , y <.9.v.w.< . + 1 U #.U - $.$.$.$.$.$.O.W W R 0 ",
">.W W W O.$.$.$.$.$.$.- K =.E 4 + . - 6.v.9.8.V 1 O O . O   O   O O   O o O O , V 5.9.c.w.< . + 1 U =.U - $.$.$.$.$.$.o.W W R 0 ",
"L E W _ $.$.$.$.$.$.$.- P -.~ 4 +   + d 3.5.A b 9 7 7 7 7 7 7 7 7 7 7 7 7 7 7 0 b A 5.3.x +   X 1 U =.U - $.$.$.$.$.O._ W W R 0 ",
">.^ ^ $.$.$.$.$.$.$.$.& P -.~ 4 +     * d q.` F J Q Q Q J J Q Q J J J J J J J J F ( e.m #     + 1 U =.U & $.$.$.$.$.o.W W E R 0 ",
"p.^ ^ $.$.$.$.$.$.$.$.= K =.U 4 +     # M x...Y / / / / / / / / / / / / / / / / Q  .x.V *     + 1 U =.U - $.$.$.$.$.$.W E W E 0 ",
"p.] ] $.$.$.$.$.$.$.$.= P =.U 4 +     X i 3.D C ! ! ! ! ! ! Q ! Q ! ! ! ! / ! ! ( D 4.r O     + 1 U =.U - $.$.$.$.$.$._ E W R 0 ",
"N.] $.$.$.$.$.$.$.$.$.& P -.~ 4 +       + u 1.7.H F F F F F F F F F F F F F F F A 2.u @       + 1 U =.P - $.@._ _ @.$.o.W W R 0 ",
",.] $.$.$.$.$.$.$.$.$.= P =.U 4 +       O : 1.2.p p f 5 > > > > > > > > 3 6 x p 1.2.: O       $ 1 U =.U = $.@.W W _ $.$._ W R 9 ",
"] O.$.$.$.$.$.$.$.$.$.= P ;.~ 4 +       X - N z t t w - O             . - 2 t t z z ; X       X 1 U =.U - $.$.@.^ ^ O.$.o._ R 0 ",
"L $.$.$.$.$.$.$.$.$.$.= P =.~ 4 .         X : e t t 2 - O               - 2 t t e : X         X 1 U =.P - $.$.$.$.O.$.$.O._ R 0 ",
",.$.$.$.$.$.$.$.$.$.$.= K -.U 4 +           * : w p s 5 > > > > > > > > 5 a p w : =           X 1 U =.U = $.$.$.$.$.O.O.O._ R 0 ",
"B.$.$.$.$.$.$.$.$.$.$.= P =.~ 4 +           @ - 1 0 c c 0 0 9 9 0 0 0 0 c c j 4 < * .         X < U =.U - $.$.$.$.O.^ ^ o.o.E 0 ",
"p.X.$.$.$.$.$.$.$.$.$.= P -.U 4 +           O * 1 8 7 3 > > > > > > > > 3 7 7 < * O           . 1 U =.U - $.$.$.$.O.W W W W R 0 ",
"N.] O.$.$.$.$.$.$.$.$.= P -.U 4 +             O - < - *                 * - < , O             + 1 U -.U - $.$.$.$.$.^ W W W R 0 ",
"p.X.O.$.$.$.$.$.$.$.$.= K =.~ 4 +               O - * .                 . # , O               X 1 U $.P - $.$.$.$.$.o._ W _ R 0 ",
"N.^ ] $.$.$.$.$.$.$.$.= P =.~ 4 X                 $ O                     O # .               + 1 U =.U - O.$.$.$.$.$.O.O.O.E 0 ",
"p.^ ^ $.$.$.$.$.$.$.$.= K =.~ 4 +                                                             X 1 U #.U - $.$.$.$.$.O.O.$.O.W 0 ",
"N.^ ^ O.$.$.$.$.$.$.$.& k } U 1 +                                                             + 1 U { n - $.$.$.$.$.X.o.o.$.R 0 ",
"p.^ X.$.$.$.$.$.$.$.$.& a K K < + .   . .         . .       . .             .     .   .     . + < G K f - $.$.$.$.$.O.^ b _ Y 0 ",
"N.^ ^ O.$.$.$.$.$.$.$.& - ; ; = $ $ $ $ $ $ $ $ $ $ $ $ + $ $ $ $ $ $ $ $ $ $ $ $ $ $ $ $ $ $ $ & < < = % $.$.$.$.$.$.O.] G j 9 ",
",.^ ^ $.$.$.$.$.$.$.$.h h 6 = g v k n K n k h h h h h h g g k K K k h h h h h h h h h h h h h f 1 = f h h $.$.$.$.$.$.O.] o.R 9 ",
"N.W ] $.$.$.$.$.$.$.$.=.=.' < #.s.;.d.f.d.-.=.=.=.#.=.=.=.=.:.f.f.i.=.=.#.=.=.=.=.#.=.=.=.=.=.' k < P =.=.$.$.$.$.O.$.$.$.O.E 9 ",
"N.X.@.$.$.$.$.$.$.$.$.#.} U , ' =.} ;.;.=.} } } } } } } } } =.;.-.=.} } } } } } } | } } } } } { K , P } } $.$.O.] ] $.$.$.O.R g ",
",.X.$.$.$.$.$.$.$.$.$.' E K = K ' ~ ~ ' ~ ' E W ~ ~ ' ~ ~ ' ~ ' ' ~ ~ ~ ~ ' ~ ~ ~ ~ ~ ~ ) ) ~ E K - k ~ ~ $.O.^ W _ @.$.$.O.W 0 ",
"N.X.O.$.$.$.$.$.$.$.$.$.$.$.$.$.$.$.$.$.$.$.$.$.$.$.$.$.$.$.$.O.@.$.$.$.$.$.$.$.$.$.$.$.$.$.$.$.$.$.$.$.$.$.O.] W @.$.$.$.O.R 0 ",
">.X.@.$.$.$.$.$.$.$.$.$.$.$.$.$.$.$.$.$.$.$.$.$.$.$.$.$.$.$.o.] _ @.$.$.$.$.$.@.] $.$.$.$.$.$.$.$.$.$.$.$.O.O.O.$.$.$.$.$.@.W 9 ",
"Y o.$.$.$.$.$.$.$.$.$.$.O.O.O.$.$.$.$.$.$.$.$.$.$.$.$.$.$.O.^ E ] $.$.$.$.$.$.$.] o.$.$.$.$.$.$.$.$.$.$.' ^ ^ O.$.$.$.@.@.@.E 0 ",
"N.$.$.$.$.$.$.$.$.$.$.o.^ W W ] O.$.$.$.$.$.$.$.$.$.$.$.$.O._ _ o.$.$.$.$.$.$.$.O._ O.O.X.O.$.$.$.$.$.O.W W W _ $.$.@._ _ o.E 0 ",
"N.$.$.$.$.$.$.$.$.$.o.^ E W W ] $.$.$.$.$.$.$.$.$.$.$.$.$.O.o.o.$.$.$.$.$.$.$.$.O.R _ _ O.$.$.$.$.$.$.O._ W W W @.$.@.W W W R 0 ",
"N.X.$.$.$.$.$.$.$.$.O.^ W W ] o.$.$.$.O.$.$.$.$.$.$.$.$.$.O._ W _ $.$.$.$.$.$.$.o.c o.$.$.$.$.$.$.$.$.O.o.o._ _ @.$.$.W W E R 0 ",
"N._ $.$.$.$.$.$.$.$.O.^ ] o.$.$.$.O.o._ _ _ o.$.$.$.$.$.o.^ W E W @.$.$.$.$.$.$.o.c o.$.$.$.$.$.$.$.o._ ^ o.O.$.$.$.$.@.W W R 0 ",
"N._ _ o.$.$.$.$.O.W $.O.$.$.$.$.o._ W W W W _ O.$.O.O.O.W W E W E _ @.@.$.$.$.$.X.v o.$.$.$.$.O.O._ W W W _ O.$.$.$.O.o.W W R 9 ",
"N._ W W _ o.$.o._ v o.O.o.$.o.W _ W W R R W _ O.O._ _ _ W W W W W W W W ] @.$.] v R o.O.O.O.O._ _ W W W W W o.O.o._ W W W W R 0 ",
">.E R R R E E Y c 0 R E W E E R R R R R R R R W R R R R R R R E R R E R R E R j 0 Y R E W W E R R R R R R R E W E R R R R R Y 0 ",
"c 0 0 0 0 0 0 j 7 9 g 9 9 9 0 0 0 0 0 0 0 0 0 0 0 0 0 0 0 0 0 0 0 0 0 9 9 j 9 8 9 0 0 0 0 9 0 0 0 0 9 9 0 0 0 0 0 0 0 0 0 0 0 9 "
};
