/* XPM */
static char *Floor[] = {
/* columns rows colors chars-per-pixel */
"64 64 163 2 ",
"   c #8B8972",
".  c #86846E",
"X  c #85836E",
"o  c #88866F",
"O  c #89866F",
"+  c #898670",
"@  c #797765",
"#  c #44403C",
"$  c #423F3B",
"%  c #605E51",
"&  c #82806B",
"*  c #48453F",
"=  c #5F5C50",
"-  c #827F6A",
";  c #6D6858",
":  c #636153",
">  c #7A7866",
",  c #504C45",
"<  c #7E7C68",
"1  c #7B7966",
"2  c #45423D",
"3  c #423E3A",
"4  c #5E5C4F",
"5  c #817F6A",
"6  c #7C7967",
"7  c #494640",
"8  c #5D5A4E",
"9  c #83806B",
"0  c #6F6958",
"q  c #626052",
"w  c #7C7A67",
"e  c #44403D",
"r  c #83816C",
"t  c #656354",
"y  c #615F52",
"u  c #646153",
"i  c #676455",
"p  c #746E5C",
"a  c #766F5C",
"s  c #726D5B",
"d  c #5A574C",
"f  c #625F52",
"g  c #5B584C",
"h  c #646253",
"j  c #615F51",
"k  c #5E5B4E",
"l  c #5C5A4E",
"z  c #59574C",
"x  c #636052",
"c  c #636053",
"v  c #5E5B4F",
"b  c #3F3C39",
"n  c #5F5D50",
"m  c #605D4F",
"M  c #6E6757",
"N  c #726B59",
"B  c #716A59",
"V  c #6F6957",
"C  c #6C6656",
"Z  c #5F5C4F",
"A  c #5D5B4E",
"S  c #605D50",
"D  c #6D6756",
"F  c #6E6857",
"G  c #5B594D",
"H  c #5A594D",
"J  c #6F6857",
"K  c #6C6756",
"L  c #565449",
"P  c #3E3B38",
"I  c #706958",
"U  c #615D50",
"Y  c #6D6757",
"T  c #57544A",
"R  c #656153",
"E  c #706A58",
"W  c #716A58",
"Q  c #5F5D4F",
"!  c #504C44",
"~  c #7F7B67",
"^  c #736D5B",
"/  c #57554A",
"(  c #87846E",
")  c #726C5A",
"_  c #6B6655",
"`  c #59564B",
"'  c #656253",
"]  c #615E50",
"[  c #736C59",
"{  c #59574B",
"}  c #646052",
"|  c #6D6655",
" . c #5A574B",
".. c #5F5B4E",
"X. c #4F4A42",
"o. c #645E50",
"O. c #565349",
"+. c #3E3A38",
"@. c #655F51",
"#. c #4B4640",
"$. c #413E3A",
"%. c #3B3736",
"&. c #6C6555",
"*. c #676253",
"=. c #565348",
"-. c #797764",
";. c #5A584C",
":. c #6B6454",
">. c #47433D",
",. c #49453F",
"<. c #636051",
"1. c #4B4842",
"2. c #433F3B",
"3. c #4B4740",
"4. c #696253",
"5. c #47433E",
"6. c #525047",
"7. c #5D594D",
"8. c #5B584D",
"9. c #46423D",
"0. c #48443E",
"q. c #58554A",
"w. c #545148",
"e. c #48443F",
"r. c #6C6655",
"t. c #5D5A4D",
"y. c #666152",
"u. c #4A4640",
"i. c #6E6756",
"p. c #7A7865",
"a. c #5E5A4E",
"s. c #545047",
"d. c #625F51",
"f. c #7E7B67",
"g. c #746D5B",
"h. c #635F51",
"j. c #716B59",
"k. c #504D45",
"l. c #7A7765",
"z. c #82806C",
"x. c #6A6454",
"c. c #4A463F",
"v. c #6A6354",
"b. c #47423D",
"n. c #736B59",
"m. c #605C4F",
"M. c #4A453F",
"N. c #635D4F",
"B. c #6B6555",
"V. c #5C594D",
"C. c #5C5A4D",
"Z. c #555248",
"A. c #413D39",
"S. c #403C38",
"D. c #575449",
"F. c #545248",
"G. c #535147",
"H. c #3F3B38",
"J. c #3D3A37",
"K. c #3A3635",
"L. c #3B3735",
"P. c #3E3A37",
"I. c white",
/* pixels */
"  . X X . o O + @ # $ % & . X X X X . @ * = & X X X - ; : & > , < . X X X X X . 1 2 3 4 5 . X X X X . 6 7 8 5 X X X 9 0 q 5 w e ",
"r t y u i p a s u d d 4 : y y y y f u q g 4 : h h u j k l j % z % y y y y u u u x g d 4 c y y y y y u x g v : h h u y v l j l b ",
"& n m M 0 N N B V 0 0 0 C Z A A A S D V 0 0 F C D C Z A G G G G H G A A m D V J V 0 0 0 D Z A A A m D V 0 0 J K D K Z A G G L P ",
"& q F N N N N N N N N N N 0 0 0 0 I N N N N V Z U F I C 8 G G G A S F 0 I N N N N N N N N I 0 0 0 I N N N N I S S Y I D A G T P ",
"< R E N N N N N N N N N N N N N N N N N N N V Z G S W 0 m k k S F I N N N N N N N N N N N N N N N N N N N N 0 Q G S I I S G T P ",
"S F N N N N N N N N N N N N N N N N N N N N N D Z U E N 0 0 0 I N N N N N N N N N N N N N N N N N N N N N N N Y m S I N D k T P ",
"! J N N N N N N N N N N N N N N N N N N N N N N 0 I N N N N N N N N N N N N N N N N N N N N N N N N N N N N N N I I N N 0 v T P ",
"~ ^ N N N N N N N N N N N N N N N N N N N N N N N N N N N N N N N N N N N N N N N N N N N N N N N N N N N N N N N N I I 0 S / P ",
"( ) N N N N N N N N N N N N N N N N N N N N N N N N N N N N N N N N N N N N N N N N N N N N N N N N N N N N N N N 0 S S D _ ` P ",
"& ' E N N N N N N N N N N N N N N N N N N N N N N N N N N N N N N N N N N N N N N N N N N N N N N N N N N N N N N V A G A v / P ",
"& x E N N N N N N N N N N N N N N N N N N N N N N N N N N N N N N N N N N N N N N N N N N N N N N N N N N N N N N 0 m G G G T P ",
"& q F N N N N N N N N N N N N N N N N N N N N N N N N N N N N N N N N N N N N N N N N N N N N N N N N N N N N N N N Y m k k / P ",
"& n ] W N N N N N N N N N N N N N N N N N N N N N N N N N N N N N N N N N N N N N N N N N N N N N N N N N N N N N N N I 0 D ` P ",
"& n Z E N N N N N N N N N N N N N N N N N N N N N N N N N N N N N N N N N N N N N N N N N N N N N N N N N N N N N N I N [ I { P ",
"& n Z E N N N N N N N N N N N N N N N N N N N N N N N N N N N N N N N N N N N N N N N N N N N N N N N N N N N N N I } D | V  .P ",
"& n Z E N N N N N N N N N N N N N N N N N N N N N N N N N N N N N N N N N N N N N N N N N N N N N N N N N N N N N N F ..X.o.O.+.",
"& n Z E N N N N N N N N N N N N N N N N N N N N N N N N N N N N N N N N N N N N N N N N N N N N N N N N N N N N N N N J @.#.$.%.",
"r n Z W N N N W &.&.J V V I N N N N N N N N N N N N N N N N N N N N N N N N N N N N N N N N N N N N N N N N N N N N N I } *.=.+.",
"-.;. .:.N W &.o.>.,.k U S <.W N N N N N N N N N N N N N N N N N N N N N N N N N N N N N N N N N N N N N N N N N I I N N I 0  .P ",
"1.2.3 3.4.o.>.5.6.7.Y 0 V I N N N N N N N N N N N N N N N N N N N N N N N N N N N N N N N N N N N N N N N N N Y m S I N N 0 { P ",
"-.8.{ O.9.0.q.w.e.r.N N N N N N N N N N N N N N N N N N N N N N N N N N N N N N N N N N N N N N N N N N N N 0 Q G m I N N 0 { P ",
"r x F C g t.F y.u.i.N N N N N N N N N N N N N N N N N N N N N N N N N N N N N N N N N N N N N N N N N N N N 0 m m F N N N 0 { P ",
"p.u W N I I N D a.I N N N N N N N N N N N N N N N N N N N N N N N N N N N N N N N N N N N N N N N N N N N N N I I N N N N 0 { P ",
"s.D N N N N N F d.F N N N N N N N N N N N N N N N N N N N N N N N N N N N N N N N N N N N N N N N N N N N N N N N N N I I 0 { P ",
"f.g.N N N N N N C d.E N N N N N N N N N N N N N N N N N N N N N N N N N N N N N N N N N N N N N N N N N N N N N N N 0 S S _ ` P ",
"( ) N N N N N N F h.E N N N N N N N N N N N N N N N N N N N N N N N N N N N N N N N N N N N N N N N N N N N N N N N V A G A / P ",
"& ' E N N N N N j.I N N N N N N N N N N N N N N N N N N N N N N N N N N N N N N N N N N N N N N N N N N N N N N N N I m G G T P ",
"& q F N N N N N N N N N N N N N N N N N N N N N N N N N N N N N N N N N N N N N N N N N N N N N N N N N N N N N N N N D A G T P ",
"& n S F N N N N N N N N N N N N N N N N N N N N N N N N N N N N N N N N N N N N N N N N N N N N N N N N N N N N N N N 0 k G T P ",
"r n G ] E N N N N N N N N N N N N N N N N N N N N N N N N N N N N N N N N N N N N N N N N N N N N N N N N N N N N N N 0 k G T P ",
"p.4 H Z E N N N N N N N N N N N N N N N N N N N N N N N N N N N N N N N N N N N N N N N N N N N N N N N N N N N N N N D A G T P ",
"k.;.G ] E N N N N N N N N N N N N N N N N N N N N N N N N N N N N N N N N N N N N N N N N N N N N N N N N N N N N N I m G G T P ",
"l.4 4 F N N N N N N N N N N N N N N N N N N N N N N N N N N N N N N N N N N N N N N N N N N N N N N N N N N N N N N V k G G T P ",
"r n Z E N N N N N N N N N N N N N N N N N N N N N N N N N N N N N N N N N N N N N N N N N N N N N N N N N N N N N N V k G G T P ",
"& n ] W N N N N N N N N N N N N N N N N N N N N N N N N N N N N N N N N N N N N N N N N N N N N N N N N N N N I I N I m G G T P ",
"& q F N N N N N N N N N N N N N N N N N N N N N N N N N N N N N N N N N N N N N N N N N N N N N N N N N N N 0 m m F N D A G T P ",
"< R E N N N N N N N N N N N N N N N N N N N N N N N N N N N N N N N N N N N N N N N N N N N N N N N N N N N 0 Q G m I I S G T P ",
"S F N N N N N N N N N N N N N N N N N N N N N N N N N N N N N N N N N N N N N N N N N N N N N N N N N N N N N Y m S I N D k T P ",
"! J N N N N N N N N N N N N N N N N N N N N N N N N N N N N N N N N N N N N N N N N N N N N N N N N N N N N N N I I N N 0 v T P ",
"~ ^ N N N N N N N N N N N N N N N N N N N N N N N N N N N N N N N N N N N N N N N N N N N N N N N N N N N N N N N N I I 0 S / P ",
"( ) N N N N N N N N N N N N N N N N N N N N N N N N N N N N N N N N N N N N N N N N N N N N N N N N N N N N N N N 0 S S D _ ` P ",
"& ' E N N N N N N N N N N N N N N N N N N N N N N N N N N N N N N N N N N N N N N N N N N N N N N N N N N N N N N V A G A v / P ",
"& x E N N N N N N N N N N N N N N N N N N N N N N N N N N N N N N N N N N N N N N N N N N N N N N N N N N N N N N 0 m G G G T P ",
"& q F N N N N N N N N N N N N N N N N N N N N N N N N N N N N N N N N N N N N N N N N N N N N N N N N N N N N N N N Y m k k / P ",
"& n ] W N N N N N N N N N N N N N N N N N N N N N N N N N N N N N N N N N N N N N N N N N N N N N N N N N N N N N N N I 0 D ` P ",
"& n Z E N N N N N N N N N N N N N N N N N N N N N N N N N N N N N N N N N N N N N N N N N N N N N N N N N N N N N N I N [ I { P ",
"& n Z E N N N N N N N N N N N N N N N N N N N N N N N N N N N N N N N N N N N N N N N N N N N N N N N N N N N N N I } D | V  .P ",
"& n Z E N N N N N N N N N N N N N N N N N N N N N N N N N N N N N N N N N N N N N N N N N N N N N N N N N N N N N N F ..X.o.O.+.",
"& n Z E N N N N N N N N N N N N N N N N N N N N N N N N N N N N N N N N N N N N N N N N N N N N N N N N N N N N N N N J @.#.$.%.",
"& n Z E N N N N N N N N N N N N N N N N N N N N N N N N N N N N N N N N N N N N N N N N N N N N N N N N N N N N N N N I } *.=.+.",
"& n ] W N N N N N N N N N N N N N N N N N N N N N N N N N N N N N N N N N N N N N N N N N N N N N N N N N N N N I I N N I 0  .P ",
"& q F N N N N N N N N N N N N N N N N N N N N N N N N N N N N N N N N N N N N N N N N N N N N N N N N N N N N Y m S I N N 0 { P ",
"& x E N N N N N N N N N N N N N N N N N N N N N N N N N N N N N N N N N N N N N N N N N N N N N N N N N N N 0 Q G m I N N 0 { P ",
"z.x I N N N N N N N N N N N N N N N N N N N N N N N N N N N N 0 I N N N N N N N I N N N N N N N N N N N N N I m m F N N N 0 { P ",
"p.u E N N N N N N N N N N N N N N N N N N N N N N N N N N N D Z U I N N N N N V h.I N N N N N N N N N N I 0 0 0 I N N N N 0 { P ",
"s.D N N N N N N N N N N 0 0 0 I N N N N N N N N N N N N N V Z G S I N N N N N V d.F N N I N N N N N N 0 S A S F N N N I I 0 { P ",
"f.g.N N N N N N N N N D Z k k ] E N N N N N N N N N N N N V m S F N N N N N N N D d.Y D } I N N N N N V A H G S I N 0 S S _ ` P ",
"( ) N N N N N N N N J Z G G G U E N N N N N N N N N N N N B D D I N N N N N N N F g Z h.F N N N N N N I S A G k 0 N V A G A / P ",
"& ' E N N N N N N N F 8 G A U F N N N 0 0 I N N N N N N N D m k ] E N N N N N N x.c.x.I N N N N N N N 0 Y D m S I N I m G G T P ",
"& q F N N N N N N E F Z U F I N N I K Z A S F N N N N N D Z G G k F N N N N N [ v.b.&.n.N N N N N I D m S Y 0 I N N N Y A G T P ",
"& n S F I N N N F m.I I I N N I K Z A G G G U E N 0 0 D Z G G G G S F 0 I N N N @.M.| n.N N N I D m A G G S I n.N I 0 D A G T P ",
"r n G k ] F I 0 N.c.B.I I I D Q A G G G G G 4 F D m v k G G G G G V.k v U F 0 @.0.q.D I 0 I Y S k G G G G k Y I Y S v k C.C./ P ",
"-.;.T T / `  .Z.A.S.D. . . .` / T T / / / T / { ` / T T T / / / / T T T / { O.3 +.F.{  . . .` / T T / / T / `  .` / T T T / G.+.",
"# H.P P P P P J.K.L.+.P P P P P P P P P P P P P P P P P P P P P P P P P P P P.K.L.+.P P P P P P P P P P P P P P P P P P P P +.L."
};
