/* XPM */
static char *Left[] = {
/* columns rows colors chars-per-pixel */
"64 64 78 1 ",
"  c #080000",
". c #3B3735",
"X c #3B3736",
"o c #3D3A37",
"O c #3E3B38",
"+ c #3F3C39",
"@ c #403C38",
"# c #423F3B",
"$ c #433F3B",
"% c #44403D",
"& c #46423D",
"* c #47423D",
"= c #4A463F",
"- c #494640",
"; c #4B4640",
": c #4B4842",
"> c #4F4A42",
", c #504C44",
"< c #504D45",
"1 c #535147",
"2 c #545047",
"3 c #57544A",
"4 c #57554A",
"5 c #5A574B",
"6 c #59574C",
"7 c #5A584C",
"8 c #5B584C",
"9 c #5D5B4E",
"0 c #5E5C4F",
"q c #5F5C50",
"w c #5F5D50",
"e c #605C4F",
"r c #605D4F",
"t c #635D4F",
"y c #615D50",
"u c #615F52",
"i c #645E50",
"p c #626052",
"a c #636053",
"s c #646153",
"d c #656354",
"f c #696253",
"g c #6A6354",
"h c #6B6454",
"j c #6B6655",
"k c #6C6756",
"l c #6E6756",
"z c #6E6757",
"x c #6E6857",
"c c #6F6857",
"v c #6D6858",
"b c #6F6958",
"n c #706A58",
"m c #726B59",
"M c #736B59",
"N c #736C59",
"B c #746E5C",
"V c #766F5C",
"C c #797764",
"Z c #7A7866",
"A c #7F7B67",
"S c #7E7C68",
"D c #817F6A",
"F c #B97371",
"G c #82806B",
"H c #83806B",
"J c #83816C",
"K c #85836E",
"L c #86846E",
"P c #89866F",
"I c #898670",
"U c #8B8972",
"Y c #67979C",
"T c #CF9C9B",
"R c #9CC8CC",
"E c #9CC8CD",
"W c #E3C6C5",
"Q c white",
/* pixels */
"ULKKLIPIZ%#uDLKKKKLC=wKKKLGxiKC>AKKKKKKKZ%%0GLKKKKKA=9DKKKHmuDZ%",
"JdusdBBNp769ppuuuusp99ppusu09uu5wpuuuudup780puuuuusu99usssu98p5$",
"Gwrzxmmmmxmxzw9990xxzbzxzz999659w66qwzczxbbbz0909rzxxnzzzz09884+",
"Gpxmmmmmmmmmmbbbmxmmmmz00znz9695qqmbbNNMmmmmnnnxxnNnmNxu0xxx055o",
"Ssmmmmmmmmmmmmmmmmmmmmx08rnzu90rxbmmmmmmmmmmmmmmmmmmmmn96qzmw75o",
"uxmmmmmmmmmmmmmmmmmmmmNz9unmnznzmmmmNNmmmmmmmmmmmmmmmmmzuqmmjw4O",
",zmmmmmmmmmmmmmmmmmmmmmmnnmmNmmmmmmmmmmmmmmmmmmmmmmmmmmmzmmmbq3O",
"ANmmmmmmmmmmmmmmmmmmmmmmmmmmnNmmmmmmmmmmmmmmmmmmmmmmmmmmmmbbbw4O",
"LNmmmmmmmmmmmmmmmmmmmmmmmmmmmmmmmmmmmmmmmmmmmmmmmmmmmmmmmxruzj5o",
"Jsbmmmmmmmmmmmmmmmmmmmmmmmmmmmmmmmmmmmmmmmmmmmmmmmmmmmmmmx95995o",
"Gpbmmmmmmmmmmmmmmmmmmmmmmmmmmmmmmmmmmmmmmmmmmmmmmmmmmmmmmm09964o",
"Gpzmmmmmmmmmmmmmmmmmmmmmmmmmmmmmmmmmmmmmmmmmmmmmmmmmmmmmmmz0993O",
"G0rmmmmmmmmmmmmmmmmmmmmmmmmmmmmmmmmmmmmmmmmmmmmmmmmmmmmmMnMnmz5o",
"Gu9mmmmmmmmmmmmmmmmmmmmmmmmmmmmmmmmmmmmmmmmmmmmmmmmmmmmmMMnnmz5O",
"D00mmmmmmmmmmmmmmmmmmmmmmmmmmmmmmmmmmmmmmmmmmmmmmmmmmmmmmnszzz5O",
"Gp0xmmmmmmmmmmmmmmmmmmmmmmmm        mmmmmmmmmmmmmmmmmmmmmmze:95O",
"Gurnmmmmnmmnmmmmmmmmmmmmmm            mmmmmmmmmmmmmmmmmmmmNnt=$.",
"G00xmmmnzxznznmmmmmmmmmm    TTTTTTTT    mmmmmmmmmmmmmmmmmmnzsf3@",
"C85zNnzr*=9urtMmmmmmmmm   TWWWWWWWWWWT   mmmmmmmmmmmmmmmmznmmz5o",
":$$=ht*%,9zxnnmmmmmmmm  TWWWWWWWWWWWWWWT  mmmmmmmmmmmmmz9uMMmm5o",
"C552**52%xmmmmmmmmmmm  TWWWWWWWWWWWWWWWWT  mmmmmmmmmmmzr90zmmb5O",
"Hsxz89zs=zmmmmmmmmmm  TWWWWWWWWWWWWWWWWWWT  mmmmmmmmmmneuzmmmz5O",
"ZsnMnnMz9mmmmmmmmmmm  WWWWWWWWWWWWWWWWWWWW  mmmmmmmmmmmnzmmmmb4O",
"2xmmmNnxuxmmmmmmmmm  TWWWWWWWWWWWWWWWWWWWWT  mmmmmmmmmmmmmmmbb6O",
"DMNMmmmmjuxNmmmmmmm  WWWWWWWWWWWWWWWWWWWWWW  mmmmmmmmmmmmmnrrz5o",
"KnNnmmmmbummmmmmmm  TWWWWWT    TWWWWWWWWWWWT  mmmmmmmmmmmmx9894o",
"GsMmmmmmmxmmmmmmmm  TWWWWW   QQ WWWWWWWWWWWT  mmmmmmmmmmmmxr594O",
"Gpzmmmmmmmmmmmmmmm  TWWWWW   QQ WWWWWWWWWWWT  mmmmmmmmmmmmmz064O",
"Gr9xNNmmmmmmmmmmmm    TWWW      WWWWWWWWWWWT  mmmmmmmmmmmmmb985O",
"Jr5umNmNmmmmmmmmmm     TWW      WWWWWWWWWWTF  mmmmmmmmmmmmmz984O",
"Zu5uxNNNmmmmmmmmmm  QQQ WWT    TWWWWWWWWWWT  mmmmmmmmmmmmmmzu83O",
">75ubmNbmmmmmmmmmm      WWWRRRRWWWWWWWWWWTF  mmmmmmmmmmmmmm0563O",
"C9qzmmmmmmmmmmmmmmm  TTTWWWEEEEWWWWWWWWWWT  mmmmmmmmmmmmmmm9574o",
"Kwqmmmmmmmmmmmmmmmm  FTWWWWEERRWWWWWWWWWTF  mmmmmmmmmmmmmmx9975O",
"Dwubmmmmmmmmmmmmmmmm  FTWWWEEERWWWWWWWWTF  mmmmmmmmmmmNbbNm0594o",
"Gubmmmmmmmmmmmmmmmmmm  FTWWEEERWWWWWWTTF  mmmmmmmmmmmmb00xmzr63O",
"Spmmmmmmmmmmmmmmmmmmmm   FTYRRRWWWWWTF   mmmmmmmmmmmmmbw6uzmw65o",
"uzmmmmmmmmmmmmmmmmmmmmm     YYYTTTTF    mmmmmmmmmmmmmmmzr9mmz93O",
">bmmmmmmmmmmmmmmmmmmmmmmm              mmmmmmmmmmmmmmmmmmzmmbq3O",
"SNmmmmmmmmmmmmmmmmmmmmmmmm          WT  mmmmmmmmmmmmmmmmmmbbbw4O",
"LNmmmmmmmmmmmmmmmmmmmmmmmm  TTTTTTTWWWT  mmmmmmmmmmmmmmmmm9uzz5o",
"Ddxmmmmmmmmmmmmmmmmmmmmmm   WWWWWWT WWT  mmmmmmmmmmmmmmmmz99994o",
"Ddmmmmmmmmmmmmmmmmmmmmmmm  TTWWWWWWT WT  mmmmmmmmmmmmmmmmzr9593o",
"Juzmmmmmmmmmmmmmmmmmmmmmm  TTTF WWWT    mmmmmmmmmmmmmmmmmmz9795o",
"D90mmmmmmmmmmmmmmmmmmmmmm  TTTF WWWT   mmmmmmmmmmmmmmmmmmmNxNz6O",
"Kprxmmmmmmmmmmmmmmmmmmmmmm  TTF TTT   mmmmmmmmmmmmmmmmmmmmmmmz5O",
"D0rmmmmmmmmmmmmmmmmmmmmmmmm          mmmmmmmmmmmmmmmmmmmmztzzz5O",
"Du9mmmmmmmmmmmmmmmmmmmmmmmmm        mmmmmmmmmmmmmmmmmmmmmmze,r4O",
"D00mmmmmmmmmmmmmmmmmmmmmmmmmmmmmmmmmmmmmmmmmmmmmmmmmmmmmmmmzt:$.",
"Du0xmmmmmmmmmmmmmmmmmmmmmmmmmmmmmmmmmmmmmmmmmmmmmmmmmmmmmmmntf5o",
"Grunmmmmmmmmmmmmmmmmmmmmmmmmmmmmmmmmmmmmmmmmmmmmmmmmmmmmmzmmbb5o",
"GpzMmmmmmmmmmmmmmmmmmmmmmmmmmmmmmmmmmmmmmmmmmmmmmmmmmmmz0unmmb5O",
"Gpnmmmmmmmmmmmmmmmmmmmmmmmmmmmmmmmmmmmmmmmmmmmmmmmmmmmz97rzmmb5O",
"DsnmmmmmmmmmmmmmmmmmmmmmmmmmmmNbnmmmmmmmnmmmmmmmmmmmmmmruzmmmb5O",
"ZsnmmmmmmmmmmmmmmmmmmmmmmmmmmNz0uzmmmmnnunmmmmmmmmmmzzxnxmmmmb4O",
"2zmmmmmmmmmmxnxnmmmmmmmmmmmmmx07enmmmMMnrzmmnmmmmmmmu9rxmmmmbb6O",
"DNmmmmmmmmmz9r9rbmNmmmmmmmmmNxwwzMmmmmmmzrzzrnmmmmmz966rmmxrrj8o",
"Kmmmmmmmmmn9959rbmmmmmmmmmmmmmzznMmmmmmmz50snNmmmmmmu999xmz9804O",
"Dimmmmmmmmz989ezmmmmbbmmmmmmmzw6rMnmmmmmf=fmnmmmmmmzzz0ummzu974o",
"Jpzmmmmmmmz0uzmmmbz09wxmmmmmz0y89cMMmmmmz%zMMmmmNxzr9zzmmmmz954+",
"Dwuzzmmmz9zmzmmmz09559ubmxmx98885uzxnmmmi=xMmmmbx9998ummmmbz985O",
"Kw69rzmzr=jzmcz99679569zj09996y65999rzNt%3zzbbzw999589zzzw99884O",
"C653559<$@55555344445345544434445333555$o3555553354433664433341O",
"%Oooo@ooXXooo$ooOOO+OOOOOOOoOOOOOoooooXXXOOOOOOOoOooOOOOOOOOOOOX"
};
