/* XPM */
static char *Right[] = {
/* columns rows colors chars-per-pixel */
"64 64 80 1 ",
"  c #080000",
". c #3B3735",
"X c #3B3736",
"o c #3D3A37",
"O c #3E3B38",
"+ c #3F3B38",
"@ c #3F3C39",
"# c #403C38",
"$ c #423F3B",
"% c #433F3B",
"& c #44403D",
"* c #46423D",
"= c #47423D",
"- c #4A463F",
"; c #494640",
": c #4B4640",
"> c #4B4842",
", c #4F4A42",
"< c #504C44",
"1 c #504D45",
"2 c #535147",
"3 c #545047",
"4 c #57544A",
"5 c #57554A",
"6 c #5A574B",
"7 c #59574C",
"8 c #5A584C",
"9 c #5B584C",
"0 c #5D5B4E",
"q c #5E5C4F",
"w c #5F5C50",
"e c #5F5D50",
"r c #605C4F",
"t c #605D4F",
"y c #635D4F",
"u c #615D50",
"i c #615F52",
"p c #645E50",
"a c #626052",
"s c #636053",
"d c #646153",
"f c #656354",
"g c #696253",
"h c #6A6354",
"j c #6B6454",
"k c #6B6655",
"l c #6C6756",
"z c #6E6756",
"x c #6E6757",
"c c #6E6857",
"v c #6F6857",
"b c #6D6858",
"n c #6F6958",
"m c #706A58",
"M c #726B59",
"N c #736B59",
"B c #736C59",
"V c #726C5A",
"C c #746E5C",
"Z c #766F5C",
"A c #797764",
"S c #7A7866",
"D c #7F7B67",
"F c #7E7C68",
"G c #817F6A",
"H c #B97371",
"J c #82806B",
"K c #83806B",
"L c #83816C",
"P c #85836E",
"I c #86846E",
"U c #89866F",
"Y c #898670",
"T c #8B8972",
"R c #67979C",
"E c #CF9C9B",
"W c #9CC8CC",
"Q c #9CC8CD",
"! c #E3C6C5",
"~ c white",
/* pixels */
"TIPPIYUYS&$iGIPPPPPA-eLIPPGniKA<DPPPPPPPS&&qJIPPPPPD-0GPPPKMiGS&",
"LfidfCCBa870aaiiiida00aaafi00ii6iaiiiiifa89qaiiiiidi00idddi09a6%",
"JetxcMMMMcMcxe000tccxnxxxx000760077wqxMxcnnnxq0q0txccmxxxxq0995@",
"JacMMMMMMMMMMnnnMcMMMMxt0xMx0706uwMxcMMMMMMMmmmccmBmMBciqcccq66o",
"FdMMMMMMMMMMMMMMMMMMMMcq8tMxi0qtcnMMBBMMMMMMMMMMMMMMMMm07wxMe86o",
"icMMMMMMMMMMMMMMMMMMMMBx0inMmxmxMMMMBBMMMMMMMMMMMMMMMMMxiwMMke5O",
"<xMMMMMMMMMMMMMMMMMMMMMMMcBMBMMMMMMMMMMMMMMMMMMMMMMMMMMMxMMMnw4O",
"DBMMMMMMMMMMMMMMMMMMMMMMMMMMMMMMMMMMMMMMMMMMMMMMMMMMMMMMMMnnne5O",
"IBMMMMMMMMMMMMMMMMMMMMMMMMMMMMMMMMMMMMMMMMMMMMMMMMMMMMMMMctixk6o",
"LdnMMMMMMMMMMMMMMMMMMMMMMMMMMMMMMMMMMMMMMMMMMMMMMMMMMMMMMc06006o",
"JanMMMMMMMMMMMMMMMMMMMMMMMMMMMMMMMMMMMMMMMMMMMMMMMMMMMMMMMq0075o",
"JaxMMMMMMMMMMMMMMMMMMMMMMMMMMMMMMMMMMMMMMMMMMMMMMMMMMMMMMMxq004O",
"JqtMMMMMMMMMMMMMMMMMMMMMMMMMMMMMMMMMMMMMMMMMMMMMMMMMMMMMNmNmMx6o",
"Ji0MMMMMMMMMMMMMMMMMMMMMMMMMMMMMMMMMMMMMMMMMMMMMMMMMMMMMNNmmMx6O",
"GqqMMMMMMMMMMMMMMMMMMMMMMMMMMMMMMMMMMMMMMMMMMMMMMMMMMMMMMmdxxx6O",
"JaqcMMMMMMMMMMMMMMMMMMMMMMMM        MMMMMMMMMMMMMMMMMMMMMMxr>06O",
"JitmMMMMmMMmMMMMMMMMMMMMMM            MMMMMMMMMMMMMMMMMMMMBmy-%.",
"JqqcMMMmxcxmxmMMMMMMMMMM    EEEEEEEE    MMMMMMMMMMMMMMMMMMmxdg4#",
"A96xBmxt=-0ityNMMMMMMMM   E!!!!!!!!!!E   MMMMMMMMMMMMMMMMxmMMx6o",
">%%-jy=&<0xcmmMMMMMMMM  E!!!!!!!!!!!!!!E  MMMMMMMMMMMMMx0iNNMM6o",
"A663==63&cMMMMMMMMMMM  E!!!!!!!!!!!!!!!!E  MMMMMMMMMMMxt0qxMMn6O",
"Kdcx90xd-xMMMMMMMMMM  E!!!!!!!!!!!!!!!!!!E  MMMMMMMMMMmrixMMMx6O",
"SdmNmmNx0MMMMMMMMMMM  !!!!!!!!!!!!!!!!!!!!  MMMMMMMMMMMmxMMMMn5O",
"3cMMMBmcicMMMMMMMMM  E!!!!!!!!!!!!!!!!!!!!E  MMMMMMMMMMMMMMMnn7O",
"GNBNMMMMkicBMMMMMMM  !!!!!!!!!!!!!!!!!!!!!!  MMMMMMMMMMMMMmttx6o",
"PmBmMMMMniMMMMMMMM  E!!!!!!!!!!!E    E!!!!!E  MMMMMMMMMMMMc0905o",
"JdNMMMMMMcMMMMMMMM  E!!!!!!!!!!! ~~   !!!!!E  MMMMMMMMMMMMct605O",
"JaxMMMMMMMMMMMMMMM  E!!!!!!!!!!! ~~   !!!!!E  MMMMMMMMMMMMMxq75O",
"Jt0cBBMMMMMMMMMMMM  E!!!!!!!!!!!      !!!E    MMMMMMMMMMMMMn096O",
"Lt6iMBMBMMMMMMMMMM  HE!!!!!!!!!!      !!E     MMMMMMMMMMMMMx095O",
"Si6icBBBMMMMMMMMMMM  E!!!!!!!!!!E    E!! ~~~  MMMMMMMMMMMMMxi94O",
",86inMBnMMMMMMMMMMM  HE!!!!!!!!!!WWWW!!!      MMMMMMMMMMMMMq674O",
"AqqcMMMMMMMMMMMMMMMM  E!!!!!!!!!!WWWW!!!EEE  MMMMMMMMMMMMMn0076o",
"PtqcMMMMMMMMMMMMMMMM  HE!!!!!!!!!WWWW!!!!EH  MMMMMMMMMMMMMn0706o",
"GqiMMMMMMMMMMMMMMMMMM  HE!!!!!!!!WWWQ!!!EH  MMMMMMMMMMMnnMne994o",
"JacMMMMMMMMMMMMMMMMMMM  HEE!!!!!!WWWQ!!EH  MMMMMMMMMMMneixMxi74O",
"FdMMMMMMMMMMMMMMMMMMMMM   HE!!!!!QWWREH   MMMMMMMMMMMMne7ixM096o",
"ixMMMMMMMMMMMMMMMMMMMMMM    HEEEERRR     MMMMMMMMMMMMMMxq0MMx04O",
"<mMMMMMMMMMMMMMMMMMMMMMMM              VMMMMMMMMMMMMMMMMMxMMnw4O",
"DMMMMMMMMMMMMMMMMMMMMMMM  E!          MVMMMMMMMMMMMMMMMMMMnnne5O",
"PMMMMMMMMMMMMMMMMMMMMMM  E!!!EEEEEEE  MMMMMMMMMMMMMMMMMMMMtixk6o",
"JdmMMMMMMMMMMMMMMMMMMMM  E!! E!!!!!!   MMMMMMMMMMMMMMMMMMx09005o",
"JdmMMMMMMMMMMMMMMMMMMMM  E! E!!!!!!EE  MMMMMMMMMMMMMMMMMMmr0704O",
"JacMMMMMMMMMMMMMMMMMMMMM    E!!! HEEE  MMMMMMMMMMMMMMMMMMMx0005O",
"G0tmMMMMMMMMMMMMMMMMMMMMM   E!!! HEEE  MMMMMMMMMMMMMMMMMMMMmMx6o",
"PitmMMMMMMMMMMMMMMMMMMMMMM   EEE HEE  MMMMMMMMMMMMMMMMMMMMmMMx6O",
"GqtmMMMMMMMMMMMMMMMMMMMMMMM          MMMMMMMMMMMMMMMMMMMMxyxxx6O",
"GiqmMMMMMMMMMMMMMMMMMMMMMMMM        VVMMMMMMMMMMMMMMMMMMMMxr<06O",
"GqtMMMMMMMMMMMMMMMMMMMMMMMMMMMMMMMMMMMMMMMMMMMMMMMMMMMMMMMMxy>%.",
"GiqxMMMMMMMMMMMMMMMMMMMMMMMMMMMMMMMMMMMMMMMMMMMMMMMMMMMMMMMmyg6o",
"JtimMMMMMMMMMMMMMMMMMMMMMMMMMMMMMMMMMMMMMMMMMMMMMMMMMMMMmxMMnn6o",
"JaxNMMMMMMMMMMMMMMMMMMMMMMMMMMMMMMMMMMMMMMMMMMMMMMMMMMMxtimMMn6O",
"JamMMMMMMMMMMMMMMMMMMMMMMMMMMMMMMMMMMMMMMMMMMMMMMMMMMMx07txMMn6O",
"GdmMMMMMMMMMMMMMMMMMMMMMMMMMMMMnmMMMMMMMmMMMMMMMMMMMMMMtixMMMn6O",
"SdmMMMMMMMMMMMMMMMMMMMMMMMMMMMxeixMMMMmmimMMMMMMMMMMxxmmcMMMMn5O",
"3xMMMMMMMMMMcmcmMMMMMMMMMMMMMn08tmMMMNMmtxMMmMMMMMMMi0txMMMMnn7O",
"GBMMMMMMMMMx0t0tnMBMMMMMMMMMMcqixNMMMMMMxtcxyMMMMMMx076rMMmttx6o",
"PMMMMMMMMMm0060tnMMMMMMMMMMMMMxxmNMMMMMMx6qdcMMMMMMMi000mMx0605o",
"GdMMMMMMMMx090rxMMMMnnMMMMMMMxe7tNMMMMMMg-gMMMMMMMMxxxtimMxi605O",
"GixMMMMMMMxqixMMMnx00enMMMMMxqu90vMMMMMMk&xNMMMMBcxt0xxMMMMxq75O",
"KtixxmNMx0xMxMMMke0099qMMccc09996ixcmMMMp-cNMMMnx0000ixMMMnx096O",
"Pq70rxNxt-kxMvx0068899qcxqqq07u76000txNy&4xxnnxe000670xmxe00995O",
"A7659601%#66666464555557665545555544666%o4666664465544775544452O",
"=Oooo#ooXXOOOo#oo@o@@@oOooooOOOOOOooooXXXOOOOOOOoOooOOOOOOOOOOOX"
};
