/* XPM */
static char *Up[] = {
/* columns rows colors chars-per-pixel */
"64 64 75 1 ",
"  c #080000",
". c #3B3735",
"X c #3B3736",
"o c #3D3A37",
"O c #3E3B38",
"+ c #3F3C39",
"@ c #403C38",
"# c #423F3B",
"$ c #433F3B",
"% c #44403D",
"& c #46423D",
"* c #47423D",
"= c #4A463F",
"- c #494640",
"; c #4B4640",
": c #4B4842",
"> c #4F4A42",
", c #504C44",
"< c #504D45",
"1 c #535147",
"2 c #545047",
"3 c #57544A",
"4 c #57554A",
"5 c #5A574B",
"6 c #59574C",
"7 c #5A584C",
"8 c #5B584C",
"9 c #5D5B4E",
"0 c #5E5C4F",
"q c #5F5C50",
"w c #5F5D50",
"e c #605C4F",
"r c #605D4F",
"t c #635D4F",
"y c #615D50",
"u c #615F52",
"i c #645E50",
"p c #626052",
"a c #636053",
"s c #646153",
"d c #656354",
"f c #696253",
"g c #6A6354",
"h c #6B6454",
"j c #6B6655",
"k c #6C6756",
"l c #6E6756",
"z c #6E6757",
"x c #6E6857",
"c c #6F6857",
"v c #6D6858",
"b c #6F6958",
"n c #706A58",
"m c #726B59",
"M c #736B59",
"N c #736C59",
"B c #746E5C",
"V c #766F5C",
"C c #797764",
"Z c #7A7866",
"A c #7E7B67",
"S c #7F7B67",
"D c #7E7C68",
"F c #817F6A",
"G c #B97371",
"H c #82806B",
"J c #83806B",
"K c #83816C",
"L c #85836E",
"P c #86846E",
"I c #89866F",
"U c #898670",
"Y c #8B8972",
"T c #CF9C9B",
"R c #E3C6C5",
/* pixels */
"YPLLPUIUZ%#uFPLLLLLC=wKPLLFbuJC,SLLLLLLLZ%%0HPLLLLLS=9FLLLJmuFZ%",
"KdusdBBNp769ppuuuusp99pppdu99uu5upuuuuudp780puuuuusu99usssu98p5$",
"Hwrzxmmmmxmxzw999rxxzbzzzz999659966q0zmzxbbbz0909rzxxnzzzz09884+",
"Hpxmmmmmmmmmmbbbmxmmmmzr9zmz9695yqmzxmmmmmmmnnnxxnNnmNxu0xxx055o",
"Dsmmmmmmmmmmmmmmmmmmmmx07rmzu90rxbmmNNmmmmmmmmmmmmmmmmn96qzmw75o",
"uxmmmmmmmmmmmmmmmmmmmmNz9ubmnznzmmmmNNmmmmmmmmmmmmmmmmmzuqmmjw4O",
",zmmmmmmmmmmmmmmmmmmmmmmmxNmNmmmmmmmmmmmmmmmmmmmmmmmmmmmzmmmbq3O",
"SNmmmmmmmmmmmmmmmmmmmmmmmmmmmmmmmmmmmmmmmmmmmmmmmmmmmmmmmmbbbw4O",
"PNmmmmmmmmmmmmmmmmmmmmmmmmmmmmmmmmmmmmmmmmmmmmmmmmmmmmmmmxruzj5o",
"Ksbmmmmmmmmmmmmmmmmmmmmmmmmmmmmmmmmmmmmmmmmmmmmmmmmmmmmmmx95995o",
"Hpbmmmmmmmmmmmmmmmmmmmmmmmmmmmmmmmmmmmmmmmmmmmmmmmmmmmmmmm09964o",
"Hpzmmmmmmmmmmmmmmmmmmmmmmmmmmmmmmmmmmmmmmmmmmmmmmmmmmmmmmmz0993O",
"H0rmmmmmmmmmmmmmmmmmmmmmmmmmmmmmmmmmmmmmmmmmmmmmmmmmmmmmMnMnmz5o",
"Hu9mmmmmmmmmmmmmmmmmmmmmmmmmmmmmmmmmmmmmmmmmmmmmmmmmmmmmMMnnmz5O",
"F00mmmmmmmmmmmmmmmmmmmmmmmmmmmmmmmmmmmmmmmmmmmmmmmmmmmmmmnszzz5O",
"Hp0xmmmmmmmmmmmmmmmmmmmmmmmm        mmmmmmmmmmmmmmmmmmmmmmze:95O",
"Hurnmmmmnmmnmmmmmmmmmmmmmm            mmmmmmmmmmmmmmmmmmmmNnt=$.",
"H00xmmmnzxznznmmmmmmmmmm    TTTTTTTT    mmmmmmmmmmmmmmmmmmnzsf3@",
"C85zNnzr*=9urtMmmmmmmmm   TRRRRRRRRRRT   mmmmmmmmmmmmmmmmznmmz5o",
":$$=ht*%,9zxnnmmmmmmmm  TRRRRRRRRRRRRRRT  mmmmmmmmmmmmmz9uMMmm5o",
"C552**52%xmmmmmmmmmmm  TRRRRRRRRRRRRRRRRT  mmmmmmmmmmmzr90zmmb5O",
"Jsxz89zs=zmmmmmmmmmm  TRRRRRRRRRRRRRRRRRRT  mmmmmmmmmmneuzmmmz5O",
"ZsnMnnMz9mmmmmmmmmmm  RRRRRRRRRRRRRRRRRRRR  mmmmmmmmmmmnzmmmmb4O",
"2xmmmNnxuxmmmmmmmmm  TRRRRRRRRRRRRRRRRRRRRT  mmmmmmmmmmmmmmmbb6O",
"FMNMmmmmjuxNmmmmmmm  RRRRRRRRRRRRRRRRRRRRRR  mmmmmmmmmmmmmnrrz5o",
"LnNnmmmmbummmmmmmm  TRRRRRRRRRRRRRRRRRRRRRRT  mmmmmmmmmmmmx9894o",
"HsMmmmmmmxmmmmmmmm  TRRRRRRRRRRRRRRRRRRRRRRT  mmmmmmmmmmmmxr594O",
"Hpzmmmmmmmmmmmmmmm  TRRRRRRRRRRRRRRRRRRRRRRT  mmmmmmmmmmmmmz064O",
"Hr9xNNmmmmmmmmmmmm  TRRRRRRRRRRRRRRRRRRRRRRT  mmmmmmmmmmmmmb985O",
"Kr5umNmNmmmmmmmmmm  GTRRRRRRRRRRRRRRRRRRRRTG  mmmmmmmmmmmmmz984O",
"Zu5uxNNNmmmmmmmmmmm  TRRRRRRRRRRRRRRRRRRRRT  mmmmmmmmmmmmmmzu83O",
">75ubmNbmmmmmmmmmmm  GTRRRRRRRRRRRRRRRRRRTG  mmmmmmmmmmmmmm0563O",
"C00xmmmmmmmmmmmmmmmm  TRRRRRRRRRRRRRRRRRRT  mmmmmmmmmmmmmmm9574o",
"Lr0xmmmmmmmmmmmmmmmm  GTRRRRRRRRRRRRRRRRTG  mmmmmmmmmmmmmmx9975O",
"Fwummmmmmmmmmmmmmmmmm  GTRRRRRRRRRRRRRRTG  mmmmmmmmmmmNbbNm0594o",
"Huxmmmmmmmmmmmmmmmmmmm  GTTRRRRRRRRRRTTG  mmmmmmmmmmmmb00xmzr63O",
"Dsmmmmmmmmmmmmmmmmmmmmm   GTTRRRRRRTTG   mmmmmmmmmmmmmbw6uzmw65o",
"uzmmmmmmmmmmmmmmmmmmmmmm    GTTTTTTG    mmmmmmmmmmmmmmmzr9mmz93O",
",nmmmmmmmmmmmmmmmmmmmmmmm              mmmmmmmmmmmmmmmmmmzmmbq3O",
"Smmmmmmmmmmmmmmmmmmmmmmm  TR        RT  mmmmmmmmmmmmmmmmmmbbbw4O",
"Lmmmmmmmmmmmmmmmmmmmmmm  TRRTTTTTTTTRRT  mmmmmmmmmmmmmmmmm9uzz5o",
"Hsnmmmmmmmmmmmmmmmmmmmm  TR TRRRRRRT RT  mmmmmmmmmmmmmmmmz99994o",
"Hsnmmmmmmmmmmmmmmmmmmmm  TR RRRRRRRR RT  mmmmmmmmmmmmmmmmzr9593o",
"Hpxmmmmmmmmmmmmmmmmmmmmm    RRT  TRR    mmmmmmmmmmmmmmmmmmz9795o",
"F9rnmmmmmmmmmmmmmmmmmmmmm   RRR  TRR   mmmmmmmmmmmmmmmmmmmNxNz6O",
"Jurnmmmmmmmmmmmmmmmmmmmmmm   RR  TR   mmmmmmmmmmmmmmmmmmmmmmmz5O",
"Hurnmmmmmmmmmmmmmmmmmmmmmmm          mmmmmmmmmmmmmmmmmmmmztzzz5O",
"F00nmmmmmmmmmmmmmmmmmmmmmmmm   mm   mmmmmmmmmmmmmmmmmmmmmmze,r4O",
"H09mmmmmmmmmmmmmmmmmmmmmmmmmmmmmmmmmmmmmmmmmmmmmmmmmmmmmmmmzt:$.",
"Hu9mmmmmmmmmmmmmmmmmmmmmmmmmmmmmmmmmmmmmmmmmmmmmmmmmmmmmmmmntf5o",
"Hrunmmmmmmmmmmmmmmmmmmmmmmmmmmmmmmmmmmmmmmmmmmmmmmmmmmmmmzmmbb5o",
"Huzmmmmmmmmmmmmmmmmmmmmmmmmmmmmmmmmmmmmmmmmmmmmmmmmmmmmz0unmmb5O",
"Hsnmmmmmmmmmmmmmmmmmmmmmmmmmmmmmmmmmmmmmmmmmmmmmmmmmmmz97rzmmb5O",
"JunmmmmmmmmmmmmmmmmmmmmmmmmmmmNbnmmmmmmmnmmmmmmmmmmmmmmruzmmmb5O",
"ZsnmmmmmmmmmmmmmmmmmmmmmmmmmmNz0uzmmmmnnunmmmmmmmmmmzzxnxmmmmb4O",
"2znNmmmmmmmmnznnmmmmmmmmmmmmmz07rnmmmMmnrzmmnmmmmmmmu9rxmmmmbb6O",
"SMmmmmmmmmmz999ebNNmmmmmmmmmNx9uzMmmmmmmzrxztmmmmmmz965emmxrrj8o",
"Pmmmmmmmmmzr999rbmmmmmmmmmmmmmzznMmmmmmmz50sxmmmmmmmu999xmz9804O",
"Hsmmmmmmmmz989rzmmmbbbmmmmmmmzw6rMmmmmmmf=fmmmmmmmmzzzrummzu974o",
"Hpzmmmmmmnz0uzMnmbzr9wbmmmmmz0y89cmmmmmmj%zMmmmmNxzr9zzmmmmz954+",
"H0pzznnmz9cmzMnMjw9559ubmxmx98885uzxnmmmi=xMmmmbz9999uzmmmbz985O",
"Ju89uzMzr=zznnc99669869zj09996y65999rzMt%3zzbbzw999569znzw99884O",
"C6445553$@35555343455345544434444433555$o3555553354433664433341O",
"%OOoo@o..XOOOo@oOOOOOOOOOOOoOOOOOOooooXXXOOOOOOOoOooOOOOOOOOOOOX"
};
