/* XPM */
static char *Wall[] = {
/* columns rows colors chars-per-pixel */
"64 64 54 1 ",
"  c #271A15",
". c #2B1B17",
"X c #2E1C18",
"o c #331E1B",
"O c #391F1F",
"+ c #36221B",
"@ c #3C251D",
"# c #3F281E",
"$ c #371E20",
"% c #391F21",
"& c #3C2021",
"* c #41271E",
"= c #42281F",
"- c #422322",
"; c #482624",
": c #452924",
"> c #4A2925",
", c #562A26",
"< c #5B2C27",
"1 c #532F28",
"2 c #5D2D28",
"3 c #4C3124",
"4 c #56352C",
"5 c #59392E",
"6 c #64312A",
"7 c #6C352D",
"8 c #6E392E",
"9 c #70382E",
"0 c #7C3F32",
"q c #7D4032",
"w c #844434",
"e c #894736",
"r c #874936",
"t c #8A4836",
"y c #8E4B38",
"u c #924E39",
"i c #95523B",
"p c #98523B",
"a c #9D5A3E",
"s c #A15C3F",
"d c #A45E41",
"f c #A76041",
"g c #A96243",
"h c #B06444",
"j c #B26B48",
"k c #BB6E4A",
"l c #BD714D",
"z c #B37650",
"x c #B77852",
"c c #BB7B54",
"v c #BF7E58",
"b c #C3754F",
"n c #CD875C",
"m c #CF885D",
/* pixels */
"@@##@#@@@@@@@@@@@#@=#X  X@##@@*@@@@@@@@#@@@@@@@@@##X@@@@@#@@@@##",
"fffffdffffffgfggfdfgx4..<afffsffggffgfgfffgffgfffhz3ifgfffffffff",
"uuuuuuuuuuuuuuuuuuuilc5X2tuuuuuuuuuyuyuuuyuuuuuuupj#6yuuuuuuyuuu",
"etteteetttttttttttttilx#<wttttttttttttttttttttttruf*<wtttttttttt",
"ettttttttttttttttttttpg*<wttttttttttttttttttttttruf=<etttttttttt",
"tttttttttttttttttttttuf@<wtttttttttwwwttttttttttyug*<wtttttttttt",
"tttttttttttttwrttttttuf@<wtttttttww667rttttttttttug*<wtttttttttt",
"ttttttttttttw7wttttttus@<wttwwwww77wwwtttttttttttuf*<etttttttttt",
"tttttteettttw7wwwetttuf*,www86677qwttttttttttttttug*2wtttttttttt",
"tttttewettttwq626wttwus+&668wwwww7wttttttttttttttug*2wtttwtttttt",
"tttttw8wwttw6<@%&6ww9ys+*0wwtttttw6wtttttttttttttug*2ettw7wttttt",
"ttttttw77ww2-OX.O209qys@,wtttttttw7wtttttttttttttps*,wetw7wttttt",
"tttttttw062-$.  .&20w6=X2wttttttttwtttttttttttttwts@@26q8wyrtttt",
"wwwwwwww2-%%$.   .*2<&X.,wwwwwwwwwweewwwrwwwwwww6<=..+&2qwwwwwww",
"2222<222-%%%%$.   XOO...O,2<<<<2<<<<<<<<<<<<22<,OO.   X+,<<<<<<<",
"XXXXXo%>>>--&%$X..X++++o+*********@XXXX**@***@*@@@+O@++@@***@*@*",
". ... oissuy72&O&&6sssstsssshssgfhx4X +ifgffffffsffffffffffffgff",
"&&%%O.X7upshw2&-26wyuue0yuppupuuuplv5:X7yuuuuuuupuuuuuiuuuuuuuuu",
",,<,-oX<wtut72220wetew7wttttttttrrilmv=2wttttttttttttttttttttttt",
"2222,@X2wtte07ww7eeteq7wtttttttttyrikj=<wttttttttttttttttttttttt",
"2222<%o,eeew9wtteeeew7wettttttttttttpf*<ettwweettteetttttttttttt",
"2222,%X2weetettteeeew7wettttttttttttuf*<wtw77weettewwewttttttttt",
"2222<@X2eetteettttew707wttttttttttttug*<wttew7wettw77w9wtttttttt",
"2222,OX2ettteettttew7w7wttttttttttwtuf*<wttte07wtw9ww70etttttttt",
"2222,OX2weeetttttte9weettttttttttw7wyf*<wettte7ww7wtew8wtttttttt",
"22222OX2weeettttttewtteettttttttttw7ts*<ettteew9q7wttew9rttttttt",
"2222,O.2eteetteettettttttttttttttttw9r@<wtttettq7qtttetwtttttttt",
"22222&X2eeeeeeeetettttttttttttttttttts*<wttttttw7wtttttttttttttt",
"2222,OX2weeeeeeettttttttteeeeettttttuf*<wtttttw7wttttttttttttttt",
"22222O.O2weeteeetteettttttewweeettttug*,2wtttww7wetttttttttttttt",
"2222,&..-220ewwwewwwewwwww0=;0wwwwwwya@O@2wwww70wwwwwwwwwwwwwwww",
"22222,&..O-,2222<<<<<<<<<<* X-,<<<<<<<X .O,<<,-,<2<2<<<<<2<<<<<<",
"7777766=@+++@++@@@+@@@X++++++++@@@+@@@++++@@@@@@XXXX@@+@@+@+@*@@",
"ggghhhhgffffatsfffffgx4+pffgffffffffsffffffsfsgx5X +ifffffffsffs",
"uuuuyuuuuuut0euuuuuuilx*7yuuuuuuuuuuuuuuuuuuuuplc4.X7yuiuuuuuuuu",
"ttttttttewq7wettttyrrpg@<wtttttttttttttttttttttpbv:X2wtttttttttt",
"ttttttttw76wtttttttttuf@<wtttttttttttttttttttteukn5+<wttttttttew",
"ttttttww7wettttttttttuf@<wtttttwttttttttttttttttulc=<wttttteew6<",
"ttttww76weeetttttttttyf@<wttttw7wttttttttttttttttph=<wttewq622*O",
"ttttw8ww6wtttttttttttyf@<wttttw6wttttttttttttetttuf=<wtte72;-%%%",
"ttww9qtw7wettttttttttuf@<wtttw7wttttttwetttttttttus=2wtteq622&&&",
"ew77wettw9wttttttttttuf@<wtttw7wtttttw9wtttttttttug=,etttteeq622",
"q7qwtttttwtttttttttttuf@<wttw9wtttttttw8wwtttttttuf=2etttttteeee",
"9wtttttttttttttttttttta+<wtttwttttttttew77wtettttuf*2wtettttettt",
"ttttttttetttttteeeeew2;X<wwwttttttttttttww7wtttttya*2wtetettettt",
"wwwwwwweewwwwwwwwwww6@..O6wwtwwwwewwwwwwwwweewwwew,X,wewwwewwwew",
"22<<2<222<<<22<<<<2<,O   @,<<<<<<<<<<<<<<<<<<<<<<,o.@,<22,2,2,,2",
"XXXXX.XXX@***+******@@@@@@**********=+XXX@********@@@****=******",
" . ...  -iffs8pffffgffggfffffffffffjc4..>afgffgsffffffffffffffff",
"=>;*O. .-8yuuw9yuuuuuuuuuuuuuyuuuuyplc#*0uuuuuuuuuuuuuiuuuuuiuuu",
"gdse2O.&4wettw7wttttttttttytttttttttig=,wttttttttttttttttttttttt",
"uupge-X,wteettw7wtttttttttttttttttttug*2wtttttttttttttttttttwwtt",
"tttpd;X2wtttttw7wtttttttttttwtttttttug=<wttttttttttttttttttw77wt",
"tttud1X2wttttw7qttttttttttww8wttttttuf=<etttttttttttttttttttww7w",
"ttttps*2ettttwq9wtttttttttw7wtttttttuf*2wtttwtttttttttttttttttw7",
"ttttud*,wttwtw7wwtttttttttw7wtttttttuf*2wttw7ettttttttttttttttew",
"ttttug*<wtw9q6209wtttttttw9wttttttttuf=<wetq7qtttttttttttttttttt",
"ttttus*<ettw6;-2qetttttttewtttttttttuf=2ete7q9qetttttttttttttttt",
"ttttpf@<wtte02*&6wttttttttttttttttttug#,qew7ww9etttttttttttttttt",
"ttttuf*<eetw902;6wttttttttttttttttttud@@227qttwttttttttttttttttt",
"ttttuf*<wtteeeq7q9tttttttetttttettttuf@.*2qetttttttttttttttttttt",
"wwweys*<wewww070wwwwwwwewewwwwewwwwwtd@ O,wewewrwwwwwtrwwwwrwwww",
"<<<<2<XO<,22,;,,<<<<<<<<<<2<2<2224<<<<X X@<<<<<<<<2<<<<<2<<<<<22",
"XXXXXX..X.XX..XXXXXXXXXXXXXXXXXXXXXXXX    XXXXXXXXXXXXXXXXXXXXXX"
};
